<svg width="21" height="20" viewBox="0 0 21 20" fill="none" xmlns="http://www.w3.org/2000/svg">
<g id="edit-05" clip-path="url(#clip0_148_3983)">
<path id="Icon" d="M9.18279 3.33344H5.68279C4.28266 3.33344 3.5826 3.33344 3.04782 3.60593C2.57741 3.84561 2.19496 4.22806 1.95528 4.69847C1.68279 5.23324 1.68279 5.93331 1.68279 7.33344V14.3334C1.68279 15.7336 1.68279 16.4336 1.95528 16.9684C2.19496 17.4388 2.57741 17.8213 3.04782 18.061C3.5826 18.3334 4.28266 18.3334 5.68279 18.3334H12.6828C14.0829 18.3334 14.783 18.3334 15.3178 18.061C15.7882 17.8213 16.1706 17.4388 16.4103 16.9684C16.6828 16.4336 16.6828 15.7336 16.6828 14.3334V10.8334M6.68277 13.3334H8.07822C8.48587 13.3334 8.6897 13.3334 8.88151 13.2874C9.05157 13.2466 9.21415 13.1792 9.36327 13.0878C9.53146 12.9848 9.67559 12.8406 9.96384 12.5524L17.9328 4.58344C18.6231 3.89309 18.6231 2.7738 17.9328 2.08344C17.2424 1.39309 16.1231 1.39308 15.4328 2.08344L7.46382 10.0524C7.17557 10.3406 7.03144 10.4848 6.92837 10.653C6.83699 10.8021 6.76965 10.9647 6.72882 11.1347C6.68277 11.3265 6.68277 11.5304 6.68277 11.938V13.3334Z" stroke="#45d58e" stroke-width="2" stroke-linecap="round" stroke-linejoin="round"/>
</g>
<defs>
<clipPath id="clip0_148_3983">
<rect width="20" height="20" fill="white" transform="translate(0.0161285)"/>
</clipPath>
</defs>
</svg>
