<svg width="204" height="204" viewBox="0 0 204 204" fill="none" xmlns="http://www.w3.org/2000/svg">
<circle opacity="0.12" cx="104.893" cy="100.543" r="90.9468" fill="url(#paint0_linear_4759_9732)"/>
<circle cx="184.595" cy="68.5107" r="4.5293" stroke="white" stroke-width="1.82808"/>
<circle cx="180.294" cy="124.079" r="3.42764" stroke="white" stroke-width="1.82808"/>
<g filter="url(#filter0_f_4759_9732)">
<circle cx="127.468" cy="173.169" r="5.44334" fill="white"/>
</g>
<g filter="url(#filter1_f_4759_9732)">
<path d="M74.6732 173.208L77.4372 180.678L84.9067 183.441L77.4372 186.205L74.6732 193.675L71.9092 186.205L64.4397 183.441L71.9092 180.678L74.6732 173.208Z" fill="white"/>
</g>
<path d="M142.06 28.8567C143.08 29.1299 143.421 30.4042 142.675 31.1505L137.637 36.1881C136.891 36.9344 135.617 36.5929 135.344 35.5735L133.5 28.692C133.226 27.6725 134.159 26.7396 135.179 27.0128L142.06 28.8567Z" fill="white"/>
<g filter="url(#filter2_f_4759_9732)">
<path d="M37.1494 52.5547L38.7894 56.9867L43.2214 58.6267L38.7894 60.2667L37.1494 64.6988L35.5094 60.2667L31.0773 58.6267L35.5094 56.9867L37.1494 52.5547Z" fill="white"/>
</g>
<circle cx="31.1219" cy="112.012" r="3.70071" stroke="white" stroke-width="1.82808"/>
<path d="M22.6592 128.421L24.9527 134.619L31.1508 136.913L24.9527 139.206L22.6592 145.404L20.3657 139.206L14.1676 136.913L20.3657 134.619L22.6592 128.421Z" fill="white"/>
<rect x="50.7292" y="84.5479" width="108.771" height="31.9914" rx="9.14039" fill="#ADADAD"/>
<circle cx="64.2112" cy="100.315" r="4.34168" fill="white"/>
<rect x="72.6661" y="96.4307" width="58.4985" height="8.22635" rx="4.11317" fill="url(#paint1_linear_4759_9732)"/>
<rect x="50.7291" y="124.311" width="108.771" height="31.9914" rx="9.14039" fill="#DFDFDF"/>
<circle cx="64.2112" cy="140.078" r="4.34168" fill="white"/>
<rect x="72.6661" y="136.193" width="58.4985" height="8.22635" rx="4.11317" fill="url(#paint2_linear_4759_9732)"/>
<rect x="50.7292" y="44.7861" width="108.771" height="31.9914" rx="9.14039" fill="#DFDFDF"/>
<circle cx="64.2112" cy="60.5536" r="4.34168" fill="white"/>
<rect x="72.6661" y="56.6689" width="58.4985" height="8.22635" rx="4.11317" fill="url(#paint3_linear_4759_9732)"/>
<g filter="url(#filter3_f_4759_9732)">
<circle cx="148.583" cy="119.619" r="17.4187" fill="#666666"/>
</g>
<circle cx="148.583" cy="116.135" r="17.4187" fill="#666666"/>
<path d="M147.395 118.744L146.801 110.929L146.687 107.525H150.457L150.343 110.929L149.749 118.744H147.395ZM148.583 124.846C147.395 124.846 146.55 124 146.55 122.812C146.55 121.624 147.418 120.801 148.583 120.801C149.726 120.801 150.594 121.624 150.594 122.812C150.594 124 149.726 124.846 148.583 124.846Z" fill="white"/>
<defs>
<filter id="filter0_f_4759_9732" x="120.196" y="165.898" width="14.5428" height="14.5429" filterUnits="userSpaceOnUse" color-interpolation-filters="sRGB">
<feFlood flood-opacity="0" result="BackgroundImageFix"/>
<feBlend mode="normal" in="SourceGraphic" in2="BackgroundImageFix" result="shape"/>
<feGaussianBlur stdDeviation="0.914038" result="effect1_foregroundBlur_4759_9732"/>
</filter>
<filter id="filter1_f_4759_9732" x="62.6117" y="171.38" width="24.1231" height="24.123" filterUnits="userSpaceOnUse" color-interpolation-filters="sRGB">
<feFlood flood-opacity="0" result="BackgroundImageFix"/>
<feBlend mode="normal" in="SourceGraphic" in2="BackgroundImageFix" result="shape"/>
<feGaussianBlur stdDeviation="0.914038" result="effect1_foregroundBlur_4759_9732"/>
</filter>
<filter id="filter2_f_4759_9732" x="29.2493" y="50.7266" width="15.8002" height="15.8007" filterUnits="userSpaceOnUse" color-interpolation-filters="sRGB">
<feFlood flood-opacity="0" result="BackgroundImageFix"/>
<feBlend mode="normal" in="SourceGraphic" in2="BackgroundImageFix" result="shape"/>
<feGaussianBlur stdDeviation="0.914038" result="effect1_foregroundBlur_4759_9732"/>
</filter>
<filter id="filter3_f_4759_9732" x="117.454" y="88.4896" width="62.2585" height="62.2581" filterUnits="userSpaceOnUse" color-interpolation-filters="sRGB">
<feFlood flood-opacity="0" result="BackgroundImageFix"/>
<feBlend mode="normal" in="SourceGraphic" in2="BackgroundImageFix" result="shape"/>
<feGaussianBlur stdDeviation="6.85529" result="effect1_foregroundBlur_4759_9732"/>
</filter>
<linearGradient id="paint0_linear_4759_9732" x1="104.893" y1="9.5957" x2="104.893" y2="191.489" gradientUnits="userSpaceOnUse">
<stop stop-color="white" stop-opacity="0"/>
<stop offset="1" stop-color="#A5A5A5"/>
</linearGradient>
<linearGradient id="paint1_linear_4759_9732" x1="72.6661" y1="101.229" x2="131.165" y2="101.458" gradientUnits="userSpaceOnUse">
<stop stop-color="white"/>
<stop offset="1" stop-color="white" stop-opacity="0"/>
</linearGradient>
<linearGradient id="paint2_linear_4759_9732" x1="73.3516" y1="139.85" x2="131.165" y2="140.307" gradientUnits="userSpaceOnUse">
<stop stop-color="white"/>
<stop offset="1" stop-color="white" stop-opacity="0"/>
</linearGradient>
<linearGradient id="paint3_linear_4759_9732" x1="72.6661" y1="60.7821" x2="118.825" y2="60.7821" gradientUnits="userSpaceOnUse">
<stop stop-color="white"/>
<stop offset="1" stop-color="white" stop-opacity="0"/>
</linearGradient>
</defs>
</svg>
