<svg width="21" height="20" viewBox="0 0 21 20" fill="none" xmlns="http://www.w3.org/2000/svg">
<path fill-rule="evenodd" clip-rule="evenodd" d="M10.5592 3.33301C10.7803 3.33301 10.9922 3.42081 11.1485 3.57709C11.3048 3.73337 11.3926 3.94533 11.3926 4.16634V4.99967C11.3926 5.22069 11.3048 5.43265 11.1485 5.58893C10.9922 5.74521 10.7803 5.83301 10.5592 5.83301C10.3382 5.83301 10.1263 5.74521 9.96999 5.58893C9.81371 5.43265 9.72591 5.22069 9.72591 4.99967V4.16634C9.72591 3.94533 9.81371 3.73337 9.96999 3.57709C10.1263 3.42081 10.3382 3.33301 10.5592 3.33301ZM13.8926 9.99967C13.8926 10.8837 13.5414 11.7316 12.9163 12.3567C12.2911 12.9818 11.4433 13.333 10.5592 13.333C9.67519 13.333 8.82734 12.9818 8.20222 12.3567C7.5771 11.7316 7.22591 10.8837 7.22591 9.99967C7.22591 9.11562 7.5771 8.26777 8.20222 7.64265C8.82734 7.01753 9.67519 6.66634 10.5592 6.66634C11.4433 6.66634 12.2911 7.01753 12.9163 7.64265C13.5414 8.26777 13.8926 9.11562 13.8926 9.99967ZM13.5059 14.1247L14.0951 14.7138C14.2522 14.8656 14.4627 14.9496 14.6812 14.9477C14.8997 14.9458 15.1088 14.8582 15.2633 14.7037C15.4178 14.5492 15.5054 14.3402 15.5073 14.1217C15.5092 13.9032 15.4252 13.6927 15.2734 13.5355L14.6842 12.9463C14.5271 12.7945 14.3166 12.7105 14.0981 12.7124C13.8796 12.7143 13.6706 12.802 13.5161 12.9565C13.3616 13.111 13.2739 13.32 13.272 13.5385C13.2701 13.757 13.3541 13.9675 13.5059 14.1247ZM15.2726 5.28551C15.4288 5.44178 15.5166 5.6537 15.5166 5.87467C15.5166 6.09564 15.4288 6.30757 15.2726 6.46384L14.6842 7.05301C14.6074 7.1326 14.5154 7.19608 14.4137 7.23976C14.3121 7.28343 14.2027 7.30642 14.0921 7.30738C13.9814 7.30834 13.8717 7.28726 13.7693 7.24536C13.6669 7.20346 13.5738 7.14158 13.4956 7.06334C13.4173 6.98509 13.3555 6.89205 13.3136 6.78964C13.2717 6.68722 13.2506 6.57749 13.2515 6.46684C13.2525 6.35619 13.2755 6.24684 13.3192 6.14517C13.3628 6.0435 13.4263 5.95155 13.5059 5.87467L14.0951 5.28551C14.2514 5.12928 14.4633 5.04152 14.6842 5.04152C14.9052 5.04152 15.1163 5.12928 15.2726 5.28551ZM16.3926 10.833C16.6136 10.833 16.8256 10.7452 16.9818 10.5889C17.1381 10.4326 17.2259 10.2207 17.2259 9.99967C17.2259 9.77866 17.1381 9.5667 16.9818 9.41042C16.8256 9.25414 16.6136 9.16634 16.3926 9.16634H15.5592C15.3382 9.16634 15.1263 9.25414 14.97 9.41042C14.8137 9.5667 14.7259 9.77866 14.7259 9.99967C14.7259 10.2207 14.8137 10.4326 14.97 10.5889C15.1263 10.7452 15.3382 10.833 15.5592 10.833H16.3926ZM10.5592 14.1663C10.7803 14.1663 10.9922 14.2541 11.1485 14.4104C11.3048 14.5667 11.3926 14.7787 11.3926 14.9997V15.833C11.3926 16.054 11.3048 16.266 11.1485 16.4223C10.9922 16.5785 10.7803 16.6663 10.5592 16.6663C10.3382 16.6663 10.1263 16.5785 9.96999 16.4223C9.81371 16.266 9.72591 16.054 9.72591 15.833V14.9997C9.72591 14.7787 9.81371 14.5667 9.96999 14.4104C10.1263 14.2541 10.3382 14.1663 10.5592 14.1663ZM6.43424 7.05301C6.51162 7.13043 6.60348 7.19186 6.70459 7.23378C6.8057 7.27571 6.91408 7.2973 7.02353 7.29734C7.13299 7.29738 7.24138 7.27586 7.34252 7.23401C7.44366 7.19216 7.53557 7.13079 7.61299 7.05342C7.69042 6.97605 7.75185 6.88419 7.79377 6.78308C7.83569 6.68197 7.85729 6.57359 7.85733 6.46414C7.85737 6.35468 7.83585 6.24629 7.794 6.14515C7.75214 6.04401 7.69078 5.9521 7.61341 5.87467L7.02341 5.28551C6.86624 5.13371 6.65574 5.04971 6.43724 5.05161C6.21875 5.05351 6.00974 5.14115 5.85523 5.29566C5.70072 5.45017 5.61308 5.65918 5.61118 5.87767C5.60928 6.09617 5.69328 6.30667 5.84508 6.46384L6.43424 7.05301ZM7.61258 14.1247L7.02341 14.7138C6.86624 14.8656 6.65574 14.9496 6.43724 14.9477C6.21875 14.9458 6.00974 14.8582 5.85523 14.7037C5.70072 14.5492 5.61308 14.3402 5.61118 14.1217C5.60928 13.9032 5.69328 13.6927 5.84508 13.5355L6.43424 12.9463C6.59141 12.7945 6.80192 12.7105 7.02041 12.7124C7.23891 12.7143 7.44792 12.802 7.60243 12.9565C7.75693 13.111 7.84457 13.32 7.84647 13.5385C7.84837 13.757 7.76438 13.9675 7.61258 14.1247ZM5.55924 10.833C5.78026 10.833 5.99222 10.7452 6.1485 10.5889C6.30478 10.4326 6.39258 10.2207 6.39258 9.99967C6.39258 9.77866 6.30478 9.5667 6.1485 9.41042C5.99222 9.25414 5.78026 9.16634 5.55924 9.16634H4.72591C4.5049 9.16634 4.29294 9.25414 4.13666 9.41042C3.98038 9.5667 3.89258 9.77866 3.89258 9.99967C3.89258 10.2207 3.98038 10.4326 4.13666 10.5889C4.29294 10.7452 4.5049 10.833 4.72591 10.833H5.55924Z" fill="#0F0F0F"/>
</svg>
