<svg width="28" height="28" viewBox="0 0 28 28" fill="none" xmlns="http://www.w3.org/2000/svg">
<g clip-path="url(#clip0_2088_14392)">
<path d="M6.17318 23.4758C5.04219 23.4758 4.12207 22.5557 4.12207 21.4247C4.12207 20.2937 5.04219 19.3736 6.17318 19.3736H14.0228C16.0584 19.3736 17.7145 17.7175 17.7145 15.6819C17.7145 13.6463 16.0584 11.9902 14.0228 11.9902H8.48695V13.6309H14.0228C15.1537 13.6309 16.0739 14.551 16.0739 15.682C16.0739 16.813 15.1537 17.733 14.0228 17.733H6.17318C4.13755 17.733 2.48145 19.3891 2.48145 21.4247C2.48145 23.4603 4.13755 25.1164 6.17318 25.1164H19.5123V23.4758H6.17318Z" fill="white"/>
<path d="M7.59998 4.18678C5.86135 2.44816 3.04254 2.44816 1.30397 4.18678C-0.434656 5.92541 -0.434656 8.74422 1.30397 10.4828L4.452 13.6308L7.59998 10.4828C9.3386 8.74416 9.3386 5.92535 7.59998 4.18678ZM4.42564 8.68187C3.66171 8.68187 3.04243 8.06259 3.04243 7.29866C3.04243 6.53473 3.66171 5.9154 4.42564 5.9154C5.18957 5.9154 5.80891 6.53468 5.80891 7.29866C5.80891 8.06259 5.18963 8.68187 4.42564 8.68187Z" fill="white"/>
<path d="M26.6957 15.6731C24.9571 13.9345 22.1382 13.9345 20.3997 15.6731C18.661 17.4117 18.661 20.2305 20.3997 21.9691L23.5477 25.1171L26.6957 21.9691C28.4343 20.2305 28.4343 17.4117 26.6957 15.6731ZM23.5213 20.1683C22.7574 20.1683 22.1381 19.549 22.1381 18.785C22.1381 18.0211 22.7574 17.4018 23.5213 17.4018C24.2853 17.4018 24.9046 18.0211 24.9046 18.785C24.9046 19.549 24.2853 20.1683 23.5213 20.1683Z" fill="white"/>
</g>
<defs>
<clipPath id="clip0_2088_14392">
<rect width="28" height="28" fill="white"/>
</clipPath>
</defs>
</svg>
