<svg width="20" height="20" viewBox="0 0 20 20" fill="none" xmlns="http://www.w3.org/2000/svg">
<path fill-rule="evenodd" clip-rule="evenodd" d="M6.66406 1.66659C6.66406 1.20635 6.29097 0.833252 5.83073 0.833252C5.37049 0.833252 4.9974 1.20635 4.9974 1.66659V2.49992H4.16406C3.50102 2.49992 2.86514 2.76331 2.3963 3.23215C1.92745 3.70099 1.66406 4.33688 1.66406 4.99992V15.8333C1.66406 16.4963 1.92745 17.1322 2.3963 17.601C2.86514 18.0699 3.50102 18.3333 4.16406 18.3333H15.8307C16.4938 18.3333 17.1297 18.0699 17.5985 17.601C18.0673 17.1322 18.3307 16.4963 18.3307 15.8333V4.99992C18.3307 4.33688 18.0673 3.70099 17.5985 3.23215C17.1297 2.76331 16.4938 2.49992 15.8307 2.49992H15.4141C14.9538 2.49992 14.5807 2.87301 14.5807 3.33325C14.5807 3.79349 14.9538 4.16659 15.4141 4.16659H15.8307C16.0517 4.16659 16.2637 4.25438 16.42 4.41066C16.5763 4.56694 16.6641 4.77891 16.6641 4.99992V7.49992H3.33073V4.99992C3.33073 4.7789 3.41853 4.56694 3.57481 4.41066C3.73109 4.25438 3.94305 4.16659 4.16406 4.16659H4.9974V4.99992C4.9974 5.46016 5.37049 5.83325 5.83073 5.83325C6.29097 5.83325 6.66406 5.46016 6.66406 4.99992V1.66659ZM3.57481 16.4225C3.41853 16.2662 3.33073 16.0543 3.33073 15.8333V9.16658H16.6641V15.8333C16.6641 16.0543 16.5763 16.2662 16.42 16.4225C16.2637 16.5788 16.0517 16.6666 15.8307 16.6666H4.16406C3.94305 16.6666 3.73109 16.5788 3.57481 16.4225Z" fill="#5C5E64"/>
<path d="M13.3307 1.66659C13.3307 1.20635 12.9576 0.833252 12.4974 0.833252C12.0372 0.833252 11.6641 1.20635 11.6641 1.66659V2.49992H8.74739C8.28716 2.49992 7.91406 2.87301 7.91406 3.33325C7.91406 3.79349 8.28716 4.16659 8.74739 4.16659H11.6641V4.99992C11.6641 5.46016 12.0372 5.83325 12.4974 5.83325C12.9576 5.83325 13.3307 5.46016 13.3307 4.99992V1.66659Z" fill="#5C5E64"/>
</svg>
