<svg width="22" height="23" viewBox="0 0 22 23" fill="none" xmlns="http://www.w3.org/2000/svg">
<g id="file-06">
<path id="Icon" d="M12.8333 2.2444V6.03073C12.8333 6.54411 12.8333 6.80081 12.9332 6.99689C13.0211 7.16937 13.1613 7.3096 13.3338 7.39749C13.5299 7.4974 13.7866 7.4974 14.3 7.4974H18.0863M14.6666 12.0807H7.33329M14.6666 15.7473H7.33329M9.16663 8.414H7.33329M12.8333 1.99733H8.06663C6.52648 1.99733 5.75641 1.99733 5.16815 2.29707C4.65071 2.56072 4.23001 2.98141 3.96636 3.49886C3.66663 4.08712 3.66663 4.85719 3.66663 6.39733V15.9307C3.66663 17.4708 3.66663 18.2409 3.96636 18.8291C4.23001 19.3466 4.65071 19.7673 5.16815 20.0309C5.75641 20.3307 6.52648 20.3307 8.06663 20.3307H13.9333C15.4734 20.3307 16.2435 20.3307 16.8318 20.0309C17.3492 19.7673 17.7699 19.3466 18.0336 18.8291C18.3333 18.2409 18.3333 17.4708 18.3333 15.9307V7.49733L12.8333 1.99733Z" stroke="#6F6B7D" stroke-width="1.5" stroke-linecap="round" stroke-linejoin="round"/>
</g>
</svg>
