<svg width="14" height="14" viewBox="0 0 14 14" fill="none" xmlns="http://www.w3.org/2000/svg">
<g id="edit">
<g id="Vector">
<path fill-rule="evenodd" clip-rule="evenodd" d="M8.43754 2.13942C9.06953 2.0586 9.70892 2.31704 10.3586 2.92834L10.3594 2.92904C11.0112 3.54551 11.308 4.17086 11.2634 4.8078C11.2204 5.42326 10.8636 5.94419 10.4568 6.37403M10.4568 6.37403L6.0119 11.0788C5.88659 11.2152 5.71786 11.3308 5.55791 11.4163C5.3959 11.5029 5.20851 11.5771 5.03258 11.6084L5.02987 11.6088L3.28633 11.9066C2.86352 11.9795 2.45809 11.8739 2.16927 11.6C1.88085 11.3265 1.75341 10.9276 1.80062 10.5027L1.80076 10.5014L2.00205 8.73884C2.02542 8.56351 2.09054 8.37377 2.1673 8.20917C2.24378 8.04517 2.34813 7.87127 2.47163 7.73981L2.47242 7.73897L6.9195 3.03188C7.32658 2.60187 7.82683 2.21751 8.43754 2.13942M7.50982 3.59016L3.06381 8.29611C3.01941 8.34348 2.95842 8.43516 2.90366 8.55257C2.8499 8.66787 2.8176 8.77453 2.80792 8.84309L2.60815 10.5924L2.60809 10.593C2.58507 10.8015 2.64986 10.936 2.72836 11.0104C2.80652 11.0845 2.94275 11.1414 3.14828 11.1059L3.1489 11.1058L4.8915 10.8082C4.95936 10.7959 5.06391 10.7591 5.17482 10.6998C5.28726 10.6397 5.37185 10.5748 5.41419 10.5284L5.41904 10.5231L9.86617 5.81605C10.2284 5.43345 10.4296 5.0848 10.4529 4.75114C10.4748 4.43889 10.3464 4.03521 9.80153 3.51979C9.2597 3.01009 8.85106 2.90565 8.5406 2.94535C8.20888 2.98777 7.87183 3.20781 7.50982 3.59016Z" fill="currentColor"/>
<path fill-rule="evenodd" clip-rule="evenodd" d="M6.41018 3.69488C6.63187 3.66034 6.83959 3.81206 6.87413 4.03375C7.0784 5.34492 8.14252 6.34842 9.46551 6.48167C9.68875 6.50415 9.85149 6.70335 9.82901 6.92658C9.80652 7.14982 9.60733 7.31256 9.38409 7.29008C7.69542 7.12 6.33287 5.83766 6.07131 4.15883C6.03677 3.93714 6.18849 3.72942 6.41018 3.69488Z" fill="currentColor"/>
</g>
</g>
</svg>
