<svg width="22" height="23" viewBox="0 0 22 23" fill="none" xmlns="http://www.w3.org/2000/svg">
<g id="camera-01">
<g id="Icon">
<path d="M1.83337 7.84312C1.83337 7.522 1.83337 7.36143 1.84677 7.2262C1.97601 5.92183 3.00787 4.88997 4.31223 4.76073C4.44747 4.74734 4.6167 4.74734 4.95516 4.74734C5.08557 4.74734 5.15078 4.74734 5.20614 4.74398C5.9131 4.70117 6.53216 4.25497 6.79634 3.59783C6.81703 3.54637 6.83637 3.48836 6.87504 3.37234C6.91372 3.25631 6.93305 3.1983 6.95374 3.14684C7.21792 2.4897 7.83698 2.0435 8.54394 2.00069C8.5993 1.99734 8.66045 1.99734 8.78275 1.99734H13.2173C13.3396 1.99734 13.4008 1.99734 13.4561 2.00069C14.1631 2.0435 14.7822 2.4897 15.0463 3.14684C15.067 3.1983 15.0864 3.25631 15.125 3.37234C15.1637 3.48836 15.1831 3.54637 15.2037 3.59783C15.4679 4.25497 16.087 4.70117 16.7939 4.74398C16.8493 4.74734 16.9145 4.74734 17.0449 4.74734C17.3834 4.74734 17.5526 4.74734 17.6878 4.76073C18.9922 4.88997 20.0241 5.92183 20.1533 7.2262C20.1667 7.36143 20.1667 7.522 20.1667 7.84312V15.014C20.1667 16.5541 20.1667 17.3242 19.867 17.9125C19.6033 18.4299 19.1826 18.8506 18.6652 19.1143C18.0769 19.414 17.3069 19.414 15.7667 19.414H6.23337C4.69323 19.414 3.92316 19.414 3.3349 19.1143C2.81745 18.8506 2.39676 18.4299 2.13311 17.9125C1.83337 17.3242 1.83337 16.5541 1.83337 15.014V7.84312Z" stroke="currentColor" stroke-width="1.5" stroke-linecap="round" stroke-linejoin="round"/>
<path d="M11 15.289C13.0251 15.289 14.6667 13.6474 14.6667 11.6223C14.6667 9.59729 13.0251 7.95567 11 7.95567C8.975 7.95567 7.33337 9.59729 7.33337 11.6223C7.33337 13.6474 8.975 15.289 11 15.289Z" stroke="currentColor" stroke-width="1.5" stroke-linecap="round" stroke-linejoin="round"/>
</g>
</g>
</svg>
