<svg width="17" height="17" viewBox="0 0 17 17" fill="none" xmlns="http://www.w3.org/2000/svg">
<g id="eye">
<g id="Vector">
<path fill-rule="evenodd" clip-rule="evenodd" d="M8.8329 6.61331C7.78905 6.61331 6.94624 7.45612 6.94624 8.49998C6.94624 9.54384 7.78905 10.3866 8.8329 10.3866C9.87676 10.3866 10.7196 9.54384 10.7196 8.49998C10.7196 7.45612 9.87676 6.61331 8.8329 6.61331ZM5.94624 8.49998C5.94624 6.90384 7.23676 5.61331 8.8329 5.61331C10.429 5.61331 11.7196 6.90384 11.7196 8.49998C11.7196 10.0961 10.429 11.3866 8.8329 11.3866C7.23676 11.3866 5.94624 10.0961 5.94624 8.49998Z" fill="currentColor"/>
<path fill-rule="evenodd" clip-rule="evenodd" d="M2.3379 6.49796C3.93184 3.99238 6.26758 2.47998 8.8329 2.47998C11.3983 2.47998 13.7342 3.99251 15.3281 6.49828C15.6914 7.06784 15.8562 7.79742 15.8562 8.49665C15.8562 9.19588 15.6914 9.92545 15.3281 10.495C13.7342 13.0008 11.3983 14.5133 8.8329 14.5133C6.26747 14.5133 3.93164 13.0008 2.33769 10.495C1.97437 9.92545 1.80957 9.19588 1.80957 8.49665C1.80957 7.79728 1.97444 7.06756 2.3379 6.49796ZM8.8329 3.47998C6.69167 3.47998 4.64083 4.74078 3.18145 7.03501L3.18103 7.03566C2.94464 7.40601 2.80957 7.93614 2.80957 8.49665C2.80957 9.05715 2.94464 9.58729 3.18103 9.95763L3.18145 9.95829C4.64083 12.2525 6.69167 13.5133 8.8329 13.5133C10.9741 13.5133 13.025 12.2525 14.4844 9.95829L14.4848 9.95763C14.7212 9.58729 14.8562 9.05715 14.8562 8.49665C14.8562 7.93614 14.7212 7.40601 14.4848 7.03566L14.4844 7.03501C13.025 4.74078 10.9741 3.47998 8.8329 3.47998Z" fill="currentColor"/>
</g>
</g>
</svg>
