<svg width="20" height="20" viewBox="0 0 20 20" fill="none" xmlns="http://www.w3.org/2000/svg">
<path d="M3.875 2C3.875 1.10254 4.60254 0.375 5.5 0.375H13.5C13.5606 0.375 13.6187 0.399079 13.6616 0.441942L19.0581 5.83839C19.1009 5.88125 19.125 5.93938 19.125 6V18C19.125 18.8975 18.3975 19.625 17.5 19.625H5.5C4.60254 19.625 3.875 18.8975 3.875 18V2Z" stroke="#D0D5DD" stroke-width="0.75"/>
<path d="M13.5 0.25V4C13.5 5.10457 14.3954 6 15.5 6H19.25" stroke="#D0D5DD" stroke-width="0.75"/>
<path d="M0 10C0 9.44772 0.447715 9 1 9H13C13.5523 9 14 9.44772 14 10V16C14 16.5523 13.5523 17 13 17H1C0.447716 17 0 16.5523 0 16V10Z" fill="#D92D20"/>
<path d="M3.74816 11.495C4.19483 11.495 4.5415 11.6033 4.78816 11.82C5.03483 12.0333 5.15816 12.335 5.15816 12.725C5.15816 13.135 5.03483 13.455 4.78816 13.685C4.5415 13.9117 4.19483 14.025 3.74816 14.025H2.72316L3.12316 13.625V15H2.20816V11.495H3.74816ZM3.70316 13.305C3.88983 13.305 4.03316 13.2583 4.13316 13.165C4.2365 13.0717 4.28816 12.9333 4.28816 12.75C4.28816 12.5733 4.2365 12.44 4.13316 12.35C4.03316 12.26 3.88983 12.215 3.70316 12.215H2.72316L3.12316 11.815V13.705L2.72316 13.305H3.70316ZM7.1166 11.495C7.39327 11.495 7.64493 11.5383 7.8716 11.625C8.1016 11.7083 8.29827 11.8283 8.4616 11.985C8.62827 12.1383 8.7566 12.3217 8.8466 12.535C8.9366 12.7483 8.9816 12.985 8.9816 13.245C8.9816 13.5083 8.93494 13.7467 8.8416 13.96C8.7516 14.1733 8.62327 14.3583 8.4566 14.515C8.28993 14.6717 8.08993 14.7917 7.8566 14.875C7.62327 14.9583 7.36493 15 7.0816 15H5.6066V11.495H7.1166ZM7.1416 14.27C7.27494 14.27 7.3966 14.2467 7.5066 14.2C7.6166 14.15 7.7116 14.08 7.7916 13.99C7.87493 13.9 7.93827 13.7933 7.9816 13.67C8.02494 13.5433 8.0466 13.405 8.0466 13.255C8.0466 13.1017 8.02327 12.9633 7.9766 12.84C7.92993 12.7133 7.86327 12.605 7.7766 12.515C7.69327 12.4217 7.59327 12.3517 7.4766 12.305C7.36327 12.255 7.2366 12.23 7.0966 12.23H6.5216V14.27H7.1416ZM9.43473 11.495H12.0547L12.0497 12.215H10.3497V13.01H11.9197V13.725H10.3497V15H9.43473V11.495Z" fill="white"/>
</svg>
