<svg width="21" height="20" viewBox="0 0 21 20" fill="none" xmlns="http://www.w3.org/2000/svg">
<path fill-rule="evenodd" clip-rule="evenodd" d="M10.5013 2.23047C9.73992 2.23047 8.99308 2.43909 8.34193 2.83368L4.17526 5.35868C3.56254 5.72998 3.0559 6.253 2.70429 6.87721C2.35268 7.50143 2.16796 8.20577 2.16797 8.92221V14.1655C2.16797 15.2706 2.60696 16.3304 3.38836 17.1118C4.16976 17.8932 5.22957 18.3322 6.33463 18.3322H14.668C15.773 18.3322 16.8328 17.8932 17.6142 17.1118C18.3956 16.3304 18.8346 15.2706 18.8346 14.1655V8.92137C18.8345 8.20511 18.6497 7.50079 18.2981 6.87676C17.9465 6.25274 17.4399 5.72989 16.8274 5.35869L12.6607 2.83369C12.0095 2.4391 11.2627 2.23047 10.5013 2.23047ZM9.20569 4.25906C9.59638 4.02231 10.0445 3.89714 10.5013 3.89714C10.9581 3.89714 11.4062 4.02231 11.7969 4.25906L15.9636 6.78406C16.3311 7.00678 16.6351 7.3205 16.846 7.69491C17.057 8.06927 17.1678 8.49168 17.168 8.92137V14.1655C17.168 14.8286 16.9046 15.4645 16.4357 15.9333C15.9669 16.4021 15.331 16.6655 14.668 16.6655H13.8346V14.1655C13.8346 13.2815 13.4834 12.4336 12.8583 11.8085C12.2332 11.1834 11.3854 10.8322 10.5013 10.8322C9.61725 10.8322 8.7694 11.1834 8.14428 11.8085C7.51916 12.4336 7.16797 13.2815 7.16797 14.1655V16.6655H6.33463C5.67159 16.6655 5.03571 16.4021 4.56687 15.9333C4.09803 15.4645 3.83464 14.8286 3.83464 14.1655V8.92221C3.83463 8.49234 3.94546 8.06972 4.15643 7.69518C4.3674 7.32065 4.67138 7.00684 5.03901 6.78406L9.20569 4.25906ZM11.6798 12.987C11.9924 13.2996 12.168 13.7235 12.168 14.1655V16.6655H8.83463V14.1655C8.83463 13.7235 9.01023 13.2996 9.32279 12.987C9.63535 12.6745 10.0593 12.4989 10.5013 12.4989C10.9433 12.4989 11.3673 12.6745 11.6798 12.987Z" fill="#667085"/>
</svg>
