<svg width="164" height="37" viewBox="0 0 164 37" fill="none" xmlns="http://www.w3.org/2000/svg">
<path d="M108.725 29.5683L106.908 34.5408L105.119 29.5683H103.586L101.81 34.5408L100.021 29.5683H98.4766L101.174 36.9933H102.474L104.365 31.7453L106.27 36.9933H107.556L110.269 29.5683H108.725Z" fill="white"/>
<path d="M118.789 29.5685H113.884C113.594 29.5773 113.309 29.6443 113.046 29.7655C112.783 29.8867 112.546 30.0596 112.351 30.2738C112.156 30.4881 112.006 30.7394 111.91 31.0127C111.815 31.2861 111.775 31.5758 111.794 31.8649V36.9981H113.236V31.8618C113.236 31.3581 113.466 31.0121 113.884 31.0121H118.789C119.192 31.0121 119.451 31.3581 119.451 31.8618V33.0437H114.313V34.4843H119.451V36.9981H120.896V31.8618C120.911 31.5724 120.868 31.2829 120.77 31.0102C120.672 30.7375 120.52 30.4871 120.324 30.2736C120.128 30.0601 119.891 29.8878 119.627 29.7667C119.364 29.6456 119.078 29.5782 118.789 29.5685Z" fill="white"/>
<path d="M127.276 33.2886L130.955 29.5685H128.948L125.299 33.2886L129.193 36.9935H131.198L127.276 33.2886ZM123.207 29.5685V36.9981H124.651V29.5731L123.207 29.5685Z" fill="white"/>
<path d="M135.53 32.5584V33.999H140.522V32.5584H135.53ZM140.928 31.0152V29.5715H133.004V36.9981H140.928V35.5544H134.448V31.0121L140.928 31.0152Z" fill="white"/>
<path d="M151.626 33.2304C151.875 33.0435 152.074 32.799 152.208 32.5179C152.341 32.2369 152.404 31.9277 152.392 31.6168C152.4 31.3433 152.352 31.0709 152.25 30.8168C152.148 30.5627 151.995 30.3324 151.8 30.1401C151.605 29.9479 151.372 29.7979 151.117 29.6995C150.861 29.6012 150.588 29.5565 150.314 29.5684H143.242V36.9981H150.446C150.72 37.0101 150.994 36.9657 151.251 36.8675C151.507 36.7694 151.741 36.6196 151.937 36.4276C152.133 36.2355 152.288 36.0052 152.391 35.751C152.494 35.4967 152.544 35.224 152.538 34.9497C152.556 34.6074 152.481 34.2666 152.32 33.9638C152.16 33.6609 151.92 33.4074 151.626 33.2304ZM150.443 35.5513H144.684V31.0121H150.314C150.689 31.0121 150.947 31.2846 150.947 31.8036C150.947 32.3226 150.689 32.5553 150.314 32.5553H145.766V33.9959H150.443C150.832 33.9959 151.091 34.2393 151.091 34.7736C151.091 35.3079 150.832 35.5513 150.443 35.5513Z" fill="white"/>
<path d="M87.5373 27.0258V33.0837H93.7276V27.0258H87.5373ZM104.668 19.9544C104.322 19.9534 103.986 19.8465 103.703 19.6483C103.475 19.493 103.289 19.2843 103.16 19.0404C103.031 18.7965 102.963 18.5248 102.963 18.249C102.963 17.9729 103.031 17.701 103.16 17.4569C103.289 17.2127 103.475 17.0038 103.703 16.8482V11.5481H97.5102V19.1078H83.6888V11.5481H77.5V25.4796H105.486V19.7447C105.235 19.8799 104.953 19.9494 104.668 19.9468V19.9544Z" fill="white"/>
<path d="M111.835 11.5294V8.43848H105.519V16.8892C105.792 17.0451 106.016 17.2742 106.166 17.5506H131.271C131.417 17.2811 131.633 17.0561 131.897 16.8992C132.16 16.7424 132.461 16.6596 132.768 16.6596C133.22 16.6596 133.653 16.8387 133.973 17.1577C134.292 17.4766 134.472 17.9092 134.472 18.3605C134.472 18.5838 134.428 18.805 134.342 19.0112C134.256 19.2175 134.131 19.4049 133.973 19.5627C133.814 19.7205 133.626 19.8456 133.42 19.9309C133.213 20.0162 132.992 20.06 132.768 20.0598C132.464 20.0599 132.165 19.9786 131.903 19.8243C131.64 19.6701 131.424 19.4485 131.277 19.1826H106.158C106.003 19.4648 105.769 19.6964 105.486 19.8501C105.235 19.9882 104.953 20.0604 104.667 20.0598C104.322 20.0587 103.986 19.9518 103.703 19.7536V25.5712H140.165V11.5294H111.835Z" fill="white"/>
<path d="M142.09 0.107422V25.7215H148.28V0.107422H142.09Z" fill="white"/>
<path d="M163.978 25.5913V11.7042H150.016L150.033 11.8298V25.5117H156.096V20.2224C155.825 20.0766 155.599 19.8605 155.442 19.5969C155.285 19.3333 155.202 19.032 155.202 18.7251C155.202 18.5016 155.246 18.2803 155.332 18.0739C155.418 17.8674 155.543 17.6798 155.701 17.5219C155.86 17.3639 156.048 17.2387 156.254 17.1533C156.461 17.0679 156.683 17.024 156.906 17.0242C157.358 17.0242 157.791 17.2034 158.11 17.5224C158.43 17.8414 158.609 18.274 158.609 18.7251C158.609 19.0322 158.526 19.3335 158.369 19.5972C158.211 19.8608 157.985 20.0768 157.714 20.2224V33.0393H163.998V29.5565L163.978 25.5913Z" fill="white"/>
<path d="M31.2888 29.6282L25.8081 21.0213L25.6778 20.8161L18.9511 10.3246L15.967 5.66905H10.8234C10.6768 5.93819 10.4601 6.16278 10.1963 6.31908C9.93245 6.47537 9.6313 6.55757 9.32455 6.55699C8.87549 6.55822 8.44423 6.38173 8.12512 6.06613C7.80601 5.75053 7.62499 5.32151 7.62175 4.87296C7.62499 4.42441 7.80601 3.99541 8.12512 3.67981C8.44423 3.36421 8.87549 3.18771 9.32455 3.18894C9.63117 3.18804 9.93234 3.26994 10.1962 3.42598C10.4601 3.58201 10.6767 3.80638 10.8234 4.07535H14.9356L12.33 0.0137787H0L6.61792 10.3369L8.71145 13.6008H14.0619C14.2087 13.3321 14.4251 13.1079 14.6886 12.9516C14.9521 12.7954 15.2529 12.7129 15.5593 12.7129C15.7823 12.7123 16.0033 12.7555 16.2095 12.8402C16.4158 12.9249 16.6033 13.0494 16.7615 13.2065C16.9196 13.3635 17.0452 13.5502 17.1311 13.7558C17.2169 13.9613 17.2615 14.1818 17.2621 14.4046C17.2633 14.6951 17.1877 14.9808 17.0429 15.2328L24.5528 27.021C24.8586 26.9993 25.1647 27.0605 25.4385 27.1982C25.7123 27.3359 25.9438 27.545 26.1085 27.8033C26.2281 27.9909 26.3094 28.2003 26.3476 28.4194C26.3857 28.6385 26.3801 28.863 26.3309 29.0799C26.2817 29.2969 26.1901 29.5019 26.0611 29.6833C25.9322 29.8646 25.7686 30.0186 25.5797 30.1364C25.1968 30.3731 24.7359 30.4493 24.2971 30.3484C23.8582 30.2475 23.477 29.9776 23.2363 29.5975C23.072 29.34 22.981 29.0427 22.9729 28.7374C22.9648 28.4321 23.04 28.1304 23.1903 27.8645L15.6804 16.0672C15.6423 16.0724 15.6039 16.075 15.5655 16.0748C15.2589 16.0748 14.9579 15.9922 14.6944 15.8356C14.4309 15.6791 14.2144 15.4544 14.068 15.1853H9.74447L23.4232 36.5235H27.707L31.2658 31.2387C31.1346 30.9897 31.068 30.7119 31.072 30.4305C31.076 30.1492 31.1506 29.8733 31.2888 29.6282Z" fill="white"/>
<path d="M40.8375 28.5473L35.7522 36.5311H29.6523L32.6134 32.1098C32.9896 32.1494 33.3679 32.0598 33.6862 31.8557C33.8754 31.7367 34.0393 31.5815 34.1684 31.3992C34.2976 31.2169 34.3895 31.0109 34.4388 30.7931C34.4882 30.5753 34.4941 30.3499 34.4562 30.1297C34.4184 29.9096 34.3375 29.6991 34.2181 29.5103C34.0541 29.2508 33.823 29.0404 33.5491 28.9013C33.2753 28.7623 32.9689 28.6997 32.6624 28.7203L30.5412 25.3706L34.6793 18.8779L40.8375 28.5473Z" fill="white"/>
<path d="M46.8441 12.001L49.1277 15.5864L46.6754 19.4475L42.1987 12.0515L42.168 12.001H46.8441Z" fill="#29ABE2"/>
<path d="M35.329 5.61393L32.7067 9.15192L26.875 0H52.6233L50.4777 3.20424C50.1726 3.17489 49.8652 3.22873 49.5883 3.36001C49.3114 3.4913 49.0753 3.69514 48.9052 3.94981C48.875 3.99363 48.8474 4.03911 48.8224 4.08606H38.3775C38.2317 3.81618 38.0155 3.59073 37.7519 3.43359C37.4883 3.27646 37.1871 3.1935 36.8801 3.19353C36.4286 3.19353 35.9956 3.37247 35.6761 3.69107C35.3565 4.00967 35.1766 4.44189 35.1758 4.89286C35.1729 5.14158 35.2252 5.38783 35.329 5.61393Z" fill="#29ABE2"/>
<path d="M39.0207 11.1942C39.0207 11.644 39.1991 12.0754 39.5168 12.3942C39.8345 12.7129 40.2656 12.893 40.7159 12.8951C40.7439 12.8972 40.7721 12.8972 40.8001 12.8951L45.6908 20.9723L42.9596 25.2589L36.7954 15.5895L33.6289 10.617L36.6252 6.58149C36.7043 6.59377 36.7843 6.59992 36.8643 6.59986C37.1716 6.59999 37.473 6.5171 37.7369 6.35997C38.0008 6.20284 38.2173 5.97733 38.3633 5.70733H48.8066C48.937 5.95393 49.1265 6.16435 49.3584 6.3197C49.7342 6.57055 50.1945 6.66211 50.6379 6.57428C51.0813 6.48644 51.4717 6.22638 51.7233 5.85123C51.8943 5.59619 51.9927 5.29955 52.0081 4.99298C52.0235 4.6864 51.9553 4.38141 51.8107 4.11056L54.5586 0.0107193H59.0492L52.4344 10.395H42.2148C42.069 10.1249 41.8525 9.89933 41.5886 9.74218C41.3247 9.58503 41.0231 9.50221 40.7159 9.50251C40.2672 9.50452 39.8374 9.68335 39.52 10.0001C39.2026 10.3169 39.0232 10.746 39.0207 11.1942Z" fill="#29ABE2"/>
<path d="M68.2882 5.47656C68.1435 5.74704 67.9278 5.97312 67.6643 6.1306C67.4008 6.28809 67.0994 6.37105 66.7924 6.37063C66.7449 6.37063 66.6958 6.37063 66.639 6.37063L64.1501 10.1628C64.2961 10.4333 64.366 10.7382 64.3525 11.0452C64.339 11.3522 64.2426 11.6498 64.0735 11.9065C63.8259 12.2836 63.4384 12.5471 62.9964 12.639C62.5544 12.7308 62.0939 12.6436 61.7162 12.3964C61.4788 12.243 61.2838 12.0324 61.1492 11.784H56.0301L51.4047 19.0483L45.2404 28.7253L40.2578 36.5438H45.6113L56.6463 19.2228C56.4959 18.9554 56.421 18.6523 56.4297 18.3457C56.4383 18.0391 56.5301 17.7406 56.6953 17.4821C56.8152 17.2933 56.9713 17.1299 57.1545 17.0014C57.3378 16.8729 57.5446 16.7818 57.7631 16.7333C57.9817 16.6848 58.2077 16.6798 58.4281 16.7188C58.6486 16.7577 58.8593 16.8397 59.048 16.9601C59.4284 17.2025 59.697 17.5857 59.7949 18.0256C59.8929 18.4656 59.8122 18.9264 59.5705 19.307C59.4052 19.5658 59.173 19.7752 58.8983 19.9129C58.6236 20.0506 58.3169 20.1116 58.0104 20.0893L47.5317 36.5423H52.5894L57.572 28.7238L69.3902 10.1704L72.3742 5.48575L68.2882 5.47656Z" fill="white"/>
<path d="M76.0159 0L73.4105 4.08606H68.2883C68.1432 3.81598 67.9274 3.5903 67.664 3.43311C67.4006 3.27593 67.0993 3.19312 66.7924 3.19353C66.3411 3.19353 65.9083 3.37252 65.589 3.69116C65.2697 4.00981 65.0902 4.44203 65.0897 4.89286C65.0885 5.17563 65.1586 5.45415 65.2936 5.70273L62.803 9.49332C62.4964 9.46768 62.1886 9.52528 61.912 9.66003C61.6355 9.79477 61.4006 10.0016 61.2321 10.2588C61.2044 10.2998 61.1788 10.3422 61.1554 10.3859H57.0664L63.6827 0.00153009L76.0159 0Z" fill="white"/>
<path d="M108.725 29.5681L106.908 34.5406L105.119 29.5681H103.586L101.81 34.5406L100.021 29.5681H98.4766L101.174 36.9932H102.474L104.365 31.7451L106.27 36.9932H107.556L110.269 29.5681H108.725Z" fill="white"/>
<path d="M118.789 29.5683H113.884C113.594 29.5772 113.309 29.6442 113.046 29.7653C112.783 29.8865 112.546 30.0594 112.351 30.2737C112.156 30.4879 112.006 30.7392 111.91 31.0126C111.815 31.2859 111.775 31.5757 111.794 31.8647V36.9979H113.236V31.8616C113.236 31.358 113.466 31.012 113.884 31.012H118.789C119.192 31.012 119.451 31.358 119.451 31.8616V33.0435H114.313V34.4841H119.451V36.9979H120.896V31.8616C120.911 31.5722 120.868 31.2827 120.77 31.01C120.672 30.7373 120.52 30.4869 120.324 30.2734C120.128 30.0599 119.891 29.8876 119.627 29.7666C119.364 29.6455 119.078 29.5781 118.789 29.5683Z" fill="white"/>
<path d="M127.276 33.2885L130.955 29.5683H128.948L125.299 33.2885L129.193 36.9933H131.198L127.276 33.2885ZM123.207 29.5683V36.9979H124.651V29.5729L123.207 29.5683Z" fill="white"/>
<path d="M135.53 32.5582V33.9988H140.522V32.5582H135.53ZM140.928 31.015V29.5714H133.004V36.9979H140.928V35.5543H134.448V31.012L140.928 31.015Z" fill="white"/>
<path d="M151.626 33.2303C151.875 33.0433 152.074 32.7988 152.208 32.5178C152.341 32.2367 152.404 31.9275 152.392 31.6167C152.4 31.3431 152.352 31.0708 152.25 30.8167C152.148 30.5626 151.995 30.3322 151.8 30.14C151.605 29.9477 151.372 29.7977 151.117 29.6994C150.861 29.601 150.588 29.5564 150.314 29.5683H143.242V36.9979H150.446C150.72 37.01 150.994 36.9655 151.251 36.8674C151.507 36.7692 151.741 36.6195 151.937 36.4274C152.133 36.2353 152.288 36.005 152.391 35.7508C152.494 35.4966 152.544 35.2238 152.538 34.9495C152.556 34.6073 152.481 34.2665 152.32 33.9636C152.16 33.6608 151.92 33.4073 151.626 33.2303ZM150.443 35.5512H144.684V31.012H150.314C150.689 31.012 150.947 31.2845 150.947 31.8035C150.947 32.3225 150.689 32.5552 150.314 32.5552H145.766V33.9958H150.443C150.832 33.9958 151.091 34.2392 151.091 34.7735C151.091 35.3078 150.832 35.5512 150.443 35.5512Z" fill="white"/>
<path d="M87.5373 27.0258V33.0837H93.7276V27.0258H87.5373ZM104.668 19.9544C104.322 19.9534 103.986 19.8465 103.703 19.6483C103.475 19.493 103.289 19.2843 103.16 19.0404C103.031 18.7965 102.963 18.5248 102.963 18.249C102.963 17.9729 103.031 17.701 103.16 17.4569C103.289 17.2127 103.475 17.0038 103.703 16.8482V11.5481H97.5102V19.1078H83.6888V11.5481H77.5V25.4796H105.486V19.7447C105.235 19.8799 104.953 19.9494 104.668 19.9468V19.9544Z" fill="white"/>
<path d="M111.835 11.5294V8.43848H105.519V16.8892C105.792 17.0451 106.016 17.2742 106.166 17.5506H131.271C131.417 17.2811 131.633 17.0561 131.897 16.8992C132.16 16.7424 132.461 16.6596 132.768 16.6596C133.22 16.6596 133.653 16.8387 133.973 17.1577C134.292 17.4766 134.472 17.9092 134.472 18.3605C134.472 18.5838 134.428 18.805 134.342 19.0112C134.256 19.2175 134.131 19.4049 133.973 19.5627C133.814 19.7205 133.626 19.8456 133.42 19.9309C133.213 20.0162 132.992 20.06 132.768 20.0598C132.464 20.0599 132.165 19.9786 131.903 19.8243C131.64 19.6701 131.424 19.4485 131.277 19.1826H106.158C106.003 19.4648 105.769 19.6964 105.486 19.8501C105.235 19.9882 104.953 20.0604 104.667 20.0598C104.322 20.0587 103.986 19.9518 103.703 19.7536V25.5712H140.165V11.5294H111.835Z" fill="white"/>
<path d="M142.09 0.107422V25.7215H148.28V0.107422H142.09Z" fill="white"/>
<path d="M163.978 25.5913V11.7042H150.016L150.033 11.8298V25.5117H156.096V20.2224C155.825 20.0766 155.599 19.8605 155.442 19.5969C155.285 19.3333 155.202 19.032 155.202 18.7251C155.202 18.5016 155.246 18.2803 155.332 18.0739C155.418 17.8674 155.543 17.6798 155.701 17.5219C155.86 17.3639 156.048 17.2387 156.254 17.1533C156.461 17.0679 156.683 17.024 156.906 17.0242C157.358 17.0242 157.791 17.2034 158.11 17.5224C158.43 17.8414 158.609 18.274 158.609 18.7251C158.609 19.0322 158.526 19.3335 158.369 19.5972C158.211 19.8608 157.985 20.0768 157.714 20.2224V33.0393H163.998V29.5565L163.978 25.5913Z" fill="white"/>
</svg>
