<svg width="96" height="96" viewBox="0 0 96 96" fill="none" xmlns="http://www.w3.org/2000/svg">
<path d="M39.901 61.5503L32.9193 49.7719L32.7534 49.4884L24.1745 35.1303L20.3694 28.7577H13.8239C13.6368 29.124 13.3606 29.4299 13.0244 29.6433C12.6881 29.8568 12.3041 29.9699 11.9127 29.9709C11.334 29.9709 10.779 29.726 10.3698 29.2902C9.96062 28.8543 9.73086 28.2632 9.73086 27.6468C9.73086 27.0304 9.96062 26.4393 10.3698 26.0035C10.779 25.5676 11.334 25.3228 11.9127 25.3228C12.3041 25.3237 12.6881 25.4369 13.0244 25.6503C13.3606 25.8638 13.6368 26.1697 13.8239 26.5359H19.0603L15.7396 20.9582H0.0303955L8.47402 35.0885L11.1448 39.5554H17.9694C18.1565 39.1891 18.4327 38.8832 18.7689 38.6698C19.1052 38.4563 19.4892 38.3432 19.8806 38.3422C20.4593 38.3422 21.0143 38.587 21.4235 39.0229C21.8327 39.4587 22.0624 40.0499 22.0624 40.6663C22.0643 41.0638 21.9681 41.4549 21.7833 41.8004L31.3831 57.9434C31.7736 57.9155 32.1641 58 32.5134 58.1881C32.8628 58.3762 33.1581 58.6609 33.3686 59.0125C33.6742 59.5321 33.7744 60.1593 33.6478 60.7575C33.5211 61.3556 33.1778 61.8761 32.6924 62.2057C32.2046 62.5312 31.6157 62.638 31.0542 62.5031C30.4927 62.3681 30.004 62.0023 29.6945 61.4853C29.4855 61.1324 29.3694 60.726 29.3587 60.3089C29.3479 59.8918 29.443 59.4793 29.6336 59.1147L20.0335 42.9671H19.8852C19.4933 42.9657 19.109 42.8518 18.7727 42.6375C18.4364 42.4232 18.1602 42.1164 17.9737 41.7493H12.4581L29.9127 70.9535H35.376L39.9141 63.721C39.7462 63.3877 39.6572 63.0157 39.6549 62.6374C39.6527 62.2591 39.7372 61.886 39.901 61.5503Z" fill="#11044C"/>
<path d="M51.5475 60.1418L45.0633 70.9999H37.2828L41.0619 64.9852C41.5397 65.0365 42.0194 64.9136 42.4231 64.6366C42.9073 64.3071 43.25 63.7874 43.3766 63.1904C43.5032 62.5934 43.4037 61.9672 43.0996 61.448C42.8897 61.0956 42.5946 60.8099 42.2452 60.621C41.8958 60.4321 41.505 60.3469 41.1141 60.3743L38.4086 55.8191L43.6842 46.9876L51.5475 60.1418Z" fill="#11044C"/>
<path d="M59.1621 37.3289L62.0772 42.2048L58.9395 47.4572L53.2277 37.3986L53.1882 37.3289H59.1621Z" fill="#29ABE2"/>
<path d="M44.5701 28.6369L41.2233 33.4477L33.8051 21H66.6413L63.9009 25.36C63.5118 25.3219 63.1202 25.3959 62.7671 25.5741C62.4141 25.7524 62.1126 26.0284 61.8938 26.3733C61.8556 26.433 61.8204 26.4951 61.7889 26.5592H48.4668C48.2797 26.1929 48.0035 25.887 47.6673 25.6736C47.331 25.4601 46.947 25.347 46.5556 25.346C45.9769 25.346 45.4219 25.5909 45.0127 26.0267C44.6035 26.4626 44.3738 27.0537 44.3738 27.6701C44.3721 28.0038 44.439 28.3338 44.5701 28.6369Z" fill="#29ABE2"/>
<path d="M49.1301 36.2272C49.1301 36.8436 49.3601 37.4347 49.7693 37.8706C50.1785 38.3064 50.7333 38.5513 51.3119 38.5513H51.4168L57.6568 49.5394L54.1657 55.3729L46.3112 42.2186L42.2706 35.4556L46.0931 29.9661C46.1941 29.9838 46.2962 29.9932 46.3986 29.994C46.79 29.9931 47.174 29.8799 47.5102 29.6665C47.8465 29.453 48.1227 29.1471 48.3098 28.7809H61.6276C61.7948 29.1124 62.0361 29.395 62.3302 29.6036C62.81 29.9428 63.3961 30.0662 63.961 29.9469C64.5258 29.8276 65.0234 29.4753 65.3454 28.9668C65.5617 28.6195 65.6866 28.2166 65.7065 27.8004C65.7265 27.3842 65.6408 26.9699 65.4588 26.6009L68.9497 21.0231H74.6794L66.24 35.1488H53.2058C53.0187 34.7826 52.7426 34.4767 52.4063 34.2632C52.07 34.0498 51.686 33.9366 51.2946 33.9357C50.7242 33.9405 50.1784 34.183 49.7738 34.6113C49.3693 35.0396 49.1381 35.6197 49.1301 36.2272Z" fill="#29ABE2"/>
<path d="M86.1468 28.7576C85.9601 29.1232 85.6846 29.4286 85.3491 29.642C85.0137 29.8554 84.6308 29.969 84.2401 29.9708H84.0523L80.8755 35.1302C81.0609 35.4981 81.1499 35.9124 81.133 36.3295C81.1162 36.7467 80.9941 37.1513 80.7796 37.5008C80.4618 38.0112 79.9678 38.3674 79.4048 38.4919C78.8418 38.6163 78.2552 38.499 77.773 38.1655C77.4701 37.9548 77.2214 37.6673 77.0488 37.3288H70.5033L64.6038 47.2107L56.749 60.3742L50.3956 71.0092H57.2247L71.2976 47.4478C71.1079 47.0838 71.0133 46.6721 71.024 46.2559C71.0348 45.8397 71.1503 45.4343 71.3585 45.0819C71.6694 44.5651 72.1595 44.2003 72.7219 44.067C73.2844 43.9338 73.8735 44.043 74.3607 44.3707C74.8446 44.7018 75.1862 45.223 75.3112 45.821C75.4363 46.419 75.3347 47.0455 75.0284 47.564C74.817 47.9154 74.5206 48.1996 74.1705 48.3869C73.8204 48.5742 73.4294 48.6576 73.0386 48.6284L59.6728 71.0092H66.1221L72.4756 60.3742L87.552 35.1349L91.3571 28.7623L86.1468 28.7576Z" fill="#90218A"/>
<path d="M95.9999 21L92.6792 26.5778H86.1338C85.947 26.2122 85.6715 25.9068 85.3361 25.6934C85.0006 25.48 84.6175 25.3664 84.2268 25.3646C83.6481 25.3646 83.0934 25.6095 82.6842 26.0453C82.275 26.4811 82.045 27.0723 82.045 27.6887C82.0438 28.0735 82.1339 28.4524 82.3068 28.7903L79.1302 33.9451C78.7397 33.9103 78.3475 33.9883 77.9951 34.1707C77.6427 34.353 77.3431 34.6332 77.1274 34.9816C77.0927 35.0372 77.0605 35.0946 77.0312 35.1536H71.7948L80.2342 21.0279L95.9999 21Z" fill="#90218A"/>
</svg>
