<svg width="20" height="21" viewBox="0 0 20 21" fill="none" xmlns="http://www.w3.org/2000/svg">
<path d="M15.2734 12.5117V10.7539H16.4844C18.423 10.7539 20 9.17691 20 7.23828C20 5.29965 18.423 3.72266 16.4844 3.72266H15.2734V1.96484H4.72656V3.72266H3.55469V4.89453H4.72656V6.65234H15.2734V4.89453H16.4844C17.777 4.89453 18.8281 5.94566 18.8281 7.23828C18.8281 8.5309 17.777 9.58203 16.4844 9.58203H15.2734V7.82422H4.72656V9.58203H3.51562C1.57699 9.58203 0 11.159 0 13.0977C0 15.0363 1.57699 16.6133 3.51562 16.6133H4.72656V18.3711H15.2734V16.6133H16.4453V15.4414H15.2734V13.6836H4.72656V15.4414H3.51562C2.22301 15.4414 1.17188 14.3903 1.17188 13.0977C1.17188 11.805 2.22301 10.7539 3.51562 10.7539H4.72656V12.5117H15.2734Z" fill="#5C5E64"/>
<path d="M17.0815 14.8559L18.2534 16.0278L17.0815 17.1996L17.9101 18.0282L19.9999 16.0278L17.9101 14.0273L17.0815 14.8559Z" fill="#5C5E64"/>
<path d="M0.828555 6.30945L2.9184 4.30902L0.828555 2.30859L0 3.13715L1.17188 4.30902L0 5.4809L0.828555 6.30945Z" fill="#5C5E64"/>
</svg>
