<svg width="22" height="20" viewBox="0 0 22 20" fill="none" xmlns="http://www.w3.org/2000/svg">
<path d="M16.1429 3H5.85714C4.25714 3 3 4.18462 3 5.69231V11.0769C3 12.5846 4.25714 13.7692 5.85714 13.7692C6.2 13.7692 6.42857 13.9846 6.42857 14.3077V16.4615C6.42857 16.6769 6.54286 16.8385 6.77143 16.9462C6.82857 17 6.88571 17 7 17C7.11429 17 7.22857 16.9462 7.34286 16.8923L11.2857 14.0923C11.5714 13.8769 11.9714 13.7692 12.3143 13.7692H16.1429C17.7429 13.7692 19 12.5846 19 11.0769V5.69231C19 4.18462 17.7429 3 16.1429 3ZM17.8571 11.0769C17.8571 11.9923 17.1143 12.6923 16.1429 12.6923H12.3143C11.6857 12.6923 11.1143 12.9077 10.6 13.2308L7.57143 15.3846V14.3077C7.57143 13.3923 6.82857 12.6923 5.85714 12.6923C4.88571 12.6923 4.14286 11.9923 4.14286 11.0769V5.69231C4.14286 4.77692 4.88571 4.07692 5.85714 4.07692H16.1429C17.1143 4.07692 17.8571 4.77692 17.8571 5.69231V11.0769ZM15.5714 6.76923C15.5714 7.09231 15.3429 7.30769 15 7.30769H7C6.65714 7.30769 6.42857 7.09231 6.42857 6.76923C6.42857 6.44615 6.65714 6.23077 7 6.23077H15C15.3429 6.23077 15.5714 6.44615 15.5714 6.76923ZM15.5714 10C15.5714 10.3231 15.3429 10.5385 15 10.5385H7C6.65714 10.5385 6.42857 10.3231 6.42857 10C6.42857 9.67692 6.65714 9.46154 7 9.46154H15C15.3429 9.46154 15.5714 9.67692 15.5714 10Z" fill="white" stroke="white" stroke-width="0.9"/>
</svg>
