<svg width="20" height="20" viewBox="0 0 20 20" fill="none" xmlns="http://www.w3.org/2000/svg">
<g clip-path="url(#clip0_2745_11345)">
<path d="M15.8578 2.62037H14.0484V1.81092C14.0484 1.54903 13.7627 1.43001 13.5008 1.43001H12.0962C11.7629 0.477696 10.9296 0.00154151 9.97732 0.00154151C9.03549 -0.0338659 8.17883 0.543635 7.85843 1.43001H6.47759C6.2157 1.43001 5.95381 1.54903 5.95381 1.81092V2.62037H4.14439C3.07214 2.63181 2.19493 3.47767 2.14453 4.54878V18.1906C2.14453 19.2381 3.09684 19.9999 4.14439 19.9999H15.8578C16.9053 19.9999 17.8576 19.2381 17.8576 18.1906V4.54882C17.8072 3.47767 16.93 2.63181 15.8578 2.62037ZM6.90608 2.38231H8.21551C8.44409 2.35443 8.62769 2.18053 8.66788 1.95378C8.80887 1.33978 9.34755 0.899031 9.97732 0.882444C10.6013 0.901355 11.1318 1.34347 11.2629 1.95378C11.3056 2.18837 11.5013 2.3645 11.7391 2.38231H13.0961V4.28693H6.90608V2.38231ZM16.9053 18.1906C16.9053 18.7144 16.3815 19.0477 15.8578 19.0477H4.14439C3.62062 19.0477 3.09684 18.7144 3.09684 18.1906V4.54882C3.14542 4.00363 3.5971 3.5827 4.14439 3.57272H5.95377V4.78692C5.97892 5.05368 6.20996 5.25323 6.47754 5.23929H13.5008C13.7733 5.25419 14.0116 5.05737 14.0484 4.78692V3.57268H15.8577C16.405 3.5827 16.8567 4.00358 16.9053 4.54878V18.1906H16.9053Z" fill="white" stroke="white" stroke-width="0.4"/>
<path d="M8.16934 10.6436C7.99075 10.4553 7.69428 10.4447 7.50271 10.6198L5.979 12.072L5.3362 11.4054C5.15761 11.2171 4.86114 11.2066 4.66956 11.3816C4.48515 11.5748 4.48515 11.8788 4.66956 12.072L5.64566 13.072C5.73015 13.1666 5.85218 13.2189 5.97896 13.2148C6.10454 13.213 6.22435 13.1617 6.31225 13.072L8.16925 11.3102C8.35335 11.1413 8.36565 10.8551 8.19673 10.6711C8.18807 10.6615 8.17891 10.6523 8.16934 10.6436Z" fill="white" stroke="white" stroke-width="0.4"/>
<path d="M14.9988 11.667H9.52303C9.26005 11.667 9.04688 11.8802 9.04688 12.1431C9.04688 12.4061 9.26005 12.6193 9.52303 12.6193H14.9988C15.2618 12.6193 15.4749 12.4061 15.4749 12.1431C15.4749 11.8802 15.2618 11.667 14.9988 11.667Z" fill="white" stroke="white" stroke-width="0.4"/>
<path d="M8.16934 6.83399C7.99075 6.64575 7.69428 6.63513 7.50271 6.81021L5.979 8.26246L5.3362 7.59582C5.15761 7.40757 4.86114 7.39696 4.66956 7.57203C4.48515 7.76525 4.48515 8.06924 4.66956 8.26246L5.64566 9.26239C5.73015 9.35699 5.85218 9.4093 5.97896 9.40525C6.10454 9.40347 6.22435 9.35211 6.31225 9.26239L8.16925 7.50063C8.35335 7.33175 8.36565 7.04557 8.19673 6.86152C8.18807 6.8519 8.17891 6.84274 8.16934 6.83399Z" fill="white" stroke="white" stroke-width="0.4"/>
<path d="M14.9988 7.8584H9.52303C9.26005 7.8584 9.04688 8.07157 9.04688 8.33455C9.04688 8.59753 9.26005 8.81071 9.52303 8.81071H14.9988C15.2618 8.81071 15.4749 8.59753 15.4749 8.33455C15.4749 8.07157 15.2618 7.8584 14.9988 7.8584Z" fill="white" stroke="white" stroke-width="0.4"/>
<path d="M8.16934 14.4531C7.99075 14.2649 7.69428 14.2543 7.50271 14.4293L5.979 15.8816L5.3362 15.2149C5.15761 15.0267 4.86114 15.0161 4.66956 15.1912C4.48515 15.3844 4.48515 15.6884 4.66956 15.8816L5.64566 16.8815C5.73015 16.9761 5.85218 17.0284 5.97896 17.0244C6.10454 17.0226 6.22435 16.9712 6.31225 16.8815L8.16925 15.1198C8.35335 14.9509 8.36565 14.6647 8.19673 14.4806C8.18807 14.4711 8.17891 14.4619 8.16934 14.4531Z" fill="white" stroke="white" stroke-width="0.4"/>
<path d="M14.9988 15.4766H9.52303C9.26005 15.4766 9.04688 15.6897 9.04688 15.9527C9.04688 16.2157 9.26005 16.4289 9.52303 16.4289H14.9988C15.2618 16.4289 15.4749 16.2157 15.4749 15.9527C15.4749 15.6897 15.2618 15.4766 14.9988 15.4766Z" fill="white" stroke="white" stroke-width="0.4"/>
</g>
<defs>
<clipPath id="clip0_2745_11345">
<rect width="20" height="20" fill="white"/>
</clipPath>
</defs>
</svg>
