<svg width="8" height="8" viewBox="0 0 8 8" fill="none" xmlns="http://www.w3.org/2000/svg">
<path d="M4.07719 0.722656C3.36814 0.722656 2.67502 0.932913 2.08547 1.32684C1.49592 1.72076 1.03642 2.28066 0.765081 2.93574C0.493741 3.59081 0.422746 4.31163 0.561074 5.00705C0.699402 5.70248 1.04084 6.34126 1.54221 6.84263C2.04358 7.344 2.68237 7.68544 3.37779 7.82377C4.07321 7.9621 4.79403 7.8911 5.44911 7.61976C6.10418 7.34842 6.66408 6.88892 7.05801 6.29937C7.45193 5.70982 7.66219 5.0167 7.66219 4.30766C7.65935 3.35773 7.28074 2.44752 6.60903 1.77581C5.93733 1.10411 5.02712 0.725493 4.07719 0.722656V0.722656ZM4.07719 6.9964C3.5454 6.9964 3.02556 6.83871 2.5834 6.54327C2.14124 6.24783 1.79661 5.8279 1.59311 5.3366C1.3896 4.84529 1.33636 4.30467 1.4401 3.78311C1.54385 3.26154 1.79993 2.78245 2.17596 2.40642C2.55198 2.03039 3.03107 1.77432 3.55264 1.67057C4.07421 1.56682 4.61482 1.62007 5.10613 1.82357C5.59743 2.02708 6.01736 2.3717 6.3128 2.81387C6.60824 3.25603 6.76594 3.77587 6.76594 4.30766C6.76381 5.0201 6.47985 5.70276 5.97607 6.20654C5.47229 6.71032 4.78963 6.99428 4.07719 6.9964Z" fill="currentColor"/>
<path d="M5.64547 3.85945H4.52516V2.73914C4.52516 2.62029 4.47794 2.50631 4.3939 2.42227C4.30986 2.33823 4.19588 2.29102 4.07703 2.29102C3.95818 2.29102 3.8442 2.33823 3.76016 2.42227C3.67612 2.50631 3.62891 2.62029 3.62891 2.73914V4.30758C3.62891 4.42643 3.67612 4.54041 3.76016 4.62445C3.8442 4.70849 3.95818 4.7557 4.07703 4.7557H5.64547C5.76432 4.7557 5.8783 4.70849 5.96234 4.62445C6.04638 4.54041 6.09359 4.42643 6.09359 4.30758C6.09359 4.18873 6.04638 4.07475 5.96234 3.99071C5.8783 3.90667 5.76432 3.85945 5.64547 3.85945Z" fill="currentColor"/>
</svg>
