<svg width="16" height="16" viewBox="0 0 16 16" fill="none" xmlns="http://www.w3.org/2000/svg">
<path d="M8 1.4C4.08504 1.4 0.9 4.58504 0.9 8.5C0.9 12.415 4.08504 15.6 8 15.6C11.915 15.6 15.1 12.415 15.1 8.5C15.1 4.58504 11.915 1.4 8 1.4ZM8 14.525C4.67784 14.525 1.975 11.8222 1.975 8.5C1.975 5.17784 4.67784 2.475 8 2.475C11.3222 2.475 14.025 5.17784 14.025 8.5C14.025 11.8222 11.3222 14.525 8 14.525Z" fill="#8A8A8A" stroke="#8A8A8A" stroke-width="0.2"/>
<path d="M7.6 4V3.9H7.5H6.5H6.4V4V9.20702V9.24844L6.42929 9.27773L9.57577 12.4242L9.64648 12.4949L9.71719 12.4242L10.4242 11.7172L10.4949 11.6465L10.4242 11.5758L7.6 8.75153V4Z" fill="#8A8A8A" stroke="#8A8A8A" stroke-width="0.2"/>
</svg>
