<svg width="14" height="14" viewBox="0 0 14 14" fill="none" xmlns="http://www.w3.org/2000/svg">
<g id="trash">
<path id="Vector" fill-rule="evenodd" clip-rule="evenodd" d="M5.91797 2.53125C5.88205 2.53125 5.84761 2.54552 5.82221 2.57091C5.79682 2.59631 5.78255 2.63075 5.78255 2.66667V3.88542H8.22005V2.66667C8.22005 2.63075 8.20578 2.59631 8.18039 2.57091C8.15499 2.54552 8.12055 2.53125 8.08463 2.53125H5.91797ZM3.65115 4.69792L4.15615 10.7579C4.15708 10.7692 4.15755 10.7804 4.15755 10.7917C4.15755 10.9712 4.22889 11.1435 4.35586 11.2704C4.48284 11.3974 4.65506 11.4688 4.83464 11.4688H9.16797C9.34754 11.4688 9.51976 11.3974 9.64674 11.2704C9.77372 11.1435 9.84505 10.9712 9.84505 10.7917C9.84505 10.7804 9.84552 10.7692 9.84645 10.7579L10.3515 4.69792H3.65115ZM11.1668 4.69792L10.6574 10.8099C10.6527 11.1984 10.4963 11.5699 10.2213 11.845C9.94191 12.1243 9.56303 12.2812 9.16797 12.2812H4.83464C4.43957 12.2812 4.06069 12.1243 3.78134 11.845C3.50629 11.5699 3.34991 11.1984 3.34516 10.8099L2.83583 4.69792H2.66797C2.4436 4.69792 2.26172 4.51603 2.26172 4.29167C2.26172 4.0673 2.4436 3.88542 2.66797 3.88542H4.97005V2.66667C4.97005 2.41526 5.06992 2.17416 5.24769 1.99639C5.42546 1.81862 5.66656 1.71875 5.91797 1.71875H8.08463C8.33604 1.71875 8.57714 1.81862 8.75491 1.99639C8.93268 2.17416 9.03255 2.41526 9.03255 2.66667V3.88542H11.3346C11.559 3.88542 11.7409 4.0673 11.7409 4.29167C11.7409 4.51603 11.559 4.69792 11.3346 4.69792H11.1668ZM5.91797 6.05208C6.14233 6.05208 6.32422 6.23397 6.32422 6.45833V9.70833C6.32422 9.9327 6.14233 10.1146 5.91797 10.1146C5.6936 10.1146 5.51172 9.9327 5.51172 9.70833V6.45833C5.51172 6.23397 5.6936 6.05208 5.91797 6.05208ZM8.08463 6.05208C8.309 6.05208 8.49088 6.23397 8.49088 6.45833V9.70833C8.49088 9.9327 8.309 10.1146 8.08463 10.1146C7.86027 10.1146 7.67838 9.9327 7.67838 9.70833V6.45833C7.67838 6.23397 7.86027 6.05208 8.08463 6.05208Z" fill="currentColor"/>
</g>
</svg>
