<svg width="62" height="62" viewBox="0 0 62 62" fill="none" xmlns="http://www.w3.org/2000/svg">
<g id="Featured icon">
<path d="M4 14C4 8.47715 8.47715 4 14 4H48C53.5228 4 58 8.47715 58 14V48C58 53.5228 53.5228 58 48 58H14C8.47715 58 4 53.5228 4 48V14Z" fill="#FEE4E2"/>
<path d="M4 14C4 8.47715 8.47715 4 14 4H48C53.5228 4 58 8.47715 58 14V48C58 53.5228 53.5228 58 48 58H14C8.47715 58 4 53.5228 4 48V14Z" stroke="#FEF3F2" stroke-width="8"/>
<path id="Icon" d="M35.9672 23.224V22.1872C35.9672 20.7356 35.9672 20.0098 35.6846 19.4553C35.4361 18.9676 35.0396 18.5711 34.5519 18.3226C33.9974 18.04 33.2716 18.04 31.82 18.04H29.7463C28.2947 18.04 27.5689 18.04 27.0144 18.3226C26.5267 18.5711 26.1302 18.9676 25.8817 19.4553C25.5991 20.0098 25.5991 20.7356 25.5991 22.1872V23.224M28.1911 30.352V36.8321M33.3752 30.352V36.8321M19.1191 23.224H42.4472M39.8552 23.224V37.7393C39.8552 39.9167 39.8552 41.0055 39.4314 41.8372C39.0586 42.5687 38.4638 43.1635 37.7323 43.5363C36.9006 43.9601 35.8118 43.9601 33.6344 43.9601H27.9319C25.7545 43.9601 24.6657 43.9601 23.834 43.5363C23.1025 43.1635 22.5077 42.5687 22.1349 41.8372C21.7111 41.0055 21.7111 39.9167 21.7111 37.7393V23.224" stroke="#EA5455" stroke-width="3" stroke-linecap="round" stroke-linejoin="round"/>
</g>
</svg>
