<svg width="20" height="20" viewBox="0 0 20 20" fill="none" xmlns="http://www.w3.org/2000/svg">
<g id="global">
<g id="Vector">
<path fill-rule="evenodd" clip-rule="evenodd" d="M9.9974 2.29102C5.7402 2.29102 2.28906 5.74215 2.28906 9.99935C2.28906 14.2565 5.7402 17.7077 9.9974 17.7077C14.2546 17.7077 17.7057 14.2565 17.7057 9.99935C17.7057 5.74215 14.2546 2.29102 9.9974 2.29102ZM1.03906 9.99935C1.03906 5.0518 5.04984 1.04102 9.9974 1.04102C14.9449 1.04102 18.9557 5.0518 18.9557 9.99935C18.9557 14.9469 14.9449 18.9577 9.9974 18.9577C5.04984 18.9577 1.03906 14.9469 1.03906 9.99935Z" fill="#A0AEC0"/>
<path fill-rule="evenodd" clip-rule="evenodd" d="M6.03906 2.49935C6.03906 2.15417 6.31888 1.87435 6.66406 1.87435H7.4974C7.69835 1.87435 7.88706 1.97098 8.00452 2.13404C8.12198 2.29709 8.15387 2.50668 8.09022 2.6973C6.50812 7.43548 6.50812 12.5632 8.09022 17.3014C8.15387 17.492 8.12198 17.7016 8.00452 17.8647C7.88706 18.0277 7.69835 18.1243 7.4974 18.1243H6.66406C6.31888 18.1243 6.03906 17.8445 6.03906 17.4993C6.03906 17.1602 6.30918 16.8842 6.64601 16.8746C5.32286 12.3878 5.32286 7.61093 6.64601 3.12409C6.30918 3.11454 6.03906 2.83849 6.03906 2.49935Z" fill="#A0AEC0"/>
<path fill-rule="evenodd" clip-rule="evenodd" d="M12.2994 1.90652C12.6269 1.7972 12.9809 1.97399 13.0902 2.3014C14.7581 7.29655 14.7581 12.7022 13.0902 17.6973C12.9809 18.0247 12.6269 18.2015 12.2994 18.0922C11.972 17.9829 11.7952 17.6288 11.9046 17.3014C13.4867 12.5632 13.4867 7.43548 11.9046 2.6973C11.7952 2.36989 11.972 2.01585 12.2994 1.90652Z" fill="#A0AEC0"/>
<path fill-rule="evenodd" clip-rule="evenodd" d="M2.13208 11.9922C2.29514 11.8748 2.50473 11.8429 2.69534 11.9065C7.43353 13.4886 12.5613 13.4886 17.2994 11.9065C17.4901 11.8429 17.6997 11.8748 17.8627 11.9922C18.0258 12.1097 18.1224 12.2984 18.1224 12.4993V13.3327C18.1224 13.6779 17.8426 13.9577 17.4974 13.9577C17.1583 13.9577 16.8822 13.6876 16.8727 13.3507C12.3858 14.6739 7.60897 14.6739 3.12214 13.3507C3.11258 13.6876 2.83653 13.9577 2.4974 13.9577C2.15222 13.9577 1.8724 13.6779 1.8724 13.3327V12.4993C1.8724 12.2984 1.96903 12.1097 2.13208 11.9922Z" fill="#A0AEC0"/>
<path fill-rule="evenodd" clip-rule="evenodd" d="M17.2994 8.09217C12.5613 6.51007 7.43353 6.51007 2.69534 8.09217C2.36793 8.2015 2.01389 8.0247 1.90457 7.6973C1.79525 7.36989 1.97204 7.01585 2.29945 6.90652C7.29459 5.23862 12.7002 5.23862 17.6953 6.90652C18.0228 7.01585 18.1995 7.36989 18.0902 7.6973C17.9809 8.0247 17.6269 8.2015 17.2994 8.09217Z" fill="#A0AEC0"/>
</g>
</g>
</svg>
