<svg width="20" height="20" viewBox="0 0 20 20" fill="none" xmlns="http://www.w3.org/2000/svg">
<g id="phone">
<path id="Vector" fill-rule="evenodd" clip-rule="evenodd" d="M4.16667 3.95898C3.8904 3.95898 3.62545 4.06873 3.4301 4.26408C3.23875 4.45543 3.12954 4.71355 3.12514 4.98367C3.31806 8.07414 4.63275 10.9881 6.82263 13.178C9.01252 15.3679 11.9265 16.6826 15.017 16.8755C15.2871 16.8711 15.5452 16.7619 15.7366 16.5706C15.9319 16.3752 16.0417 16.1103 16.0417 15.834V12.9238L12.7621 11.612L11.7859 13.2389C11.6186 13.5178 11.2653 13.6217 10.9736 13.4779C9.04056 12.5245 7.47611 10.9601 6.5228 9.0271C6.37892 8.73537 6.48286 8.38207 6.76177 8.21472L8.38869 7.23857L7.07685 3.95898H4.16667ZM2.54621 3.3802C2.97598 2.95043 3.55888 2.70898 4.16667 2.70898H7.5C7.75557 2.70898 7.98538 2.86458 8.0803 3.10187L9.74696 7.26853C9.86089 7.55335 9.75127 7.87876 9.48823 8.03658L7.91508 8.98047C8.66174 10.2683 9.73232 11.3389 11.0202 12.0856L11.9641 10.5124C12.1219 10.2494 12.4473 10.1398 12.7321 10.2537L16.8988 11.9204C17.1361 12.0153 17.2917 12.2451 17.2917 12.5007V15.834C17.2917 16.4418 17.0502 17.0247 16.6205 17.4544C16.1907 17.8842 15.6078 18.1257 15 18.1257C14.9874 18.1257 14.9747 18.1253 14.9621 18.1245C11.5591 17.9177 8.34946 16.4726 5.93875 14.0619C3.52804 11.6512 2.08295 8.44155 1.87615 5.03856C1.87538 5.02594 1.875 5.0133 1.875 5.00065C1.875 4.39286 2.11644 3.80997 2.54621 3.3802Z" fill="#A0AEC0"/>
</g>
</svg>
