<svg width="20" height="20" viewBox="0 0 20 20" fill="none" xmlns="http://www.w3.org/2000/svg">
<g id="mail">
<g id="Vector">
<path fill-rule="evenodd" clip-rule="evenodd" d="M4.16673 4.79102C3.59144 4.79102 3.12507 5.25739 3.12507 5.83268V14.166C3.12507 14.7413 3.59144 15.2077 4.16673 15.2077H15.8334C16.4087 15.2077 16.8751 14.7413 16.8751 14.166V5.83268C16.8751 5.25739 16.4087 4.79102 15.8334 4.79102H4.16673ZM1.87507 5.83268C1.87507 4.56703 2.90108 3.54102 4.16673 3.54102H15.8334C17.0991 3.54102 18.1251 4.56703 18.1251 5.83268V14.166C18.1251 15.4317 17.0991 16.4577 15.8334 16.4577H4.16673C2.90108 16.4577 1.87507 15.4317 1.87507 14.166V5.83268Z" fill="#A0AEC0"/>
<path fill-rule="evenodd" clip-rule="evenodd" d="M1.98003 5.48599C2.17151 5.19879 2.55955 5.12118 2.84675 5.31265L10.0001 10.0815L17.1534 5.31265C17.4406 5.12118 17.8286 5.19879 18.0201 5.48599C18.2116 5.7732 18.134 6.16124 17.8468 6.35271L10.3468 11.3527C10.1368 11.4927 9.86332 11.4927 9.65338 11.3527L2.15338 6.35271C1.86617 6.16124 1.78856 5.7732 1.98003 5.48599Z" fill="#A0AEC0"/>
</g>
</g>
</svg>
