<svg width="25" height="25" viewBox="0 0 25 25" fill="none" xmlns="http://www.w3.org/2000/svg">
<g id="pepicons-pencil:file">
<g id="Group">
<path id="Vector" d="M8.02188 15.0667C7.86275 15.0667 7.71013 15.0035 7.59761 14.891C7.48509 14.7784 7.42188 14.6258 7.42188 14.4667C7.42188 14.3076 7.48509 14.155 7.59761 14.0424C7.71013 13.9299 7.86275 13.8667 8.02188 13.8667H16.4219C16.581 13.8667 16.7336 13.9299 16.8461 14.0424C16.9587 14.155 17.0219 14.3076 17.0219 14.4667C17.0219 14.6258 16.9587 14.7784 16.8461 14.891C16.7336 15.0035 16.581 15.0667 16.4219 15.0667H8.02188ZM8.02188 18.6667C7.86275 18.6667 7.71013 18.6035 7.59761 18.491C7.48509 18.3784 7.42188 18.2258 7.42188 18.0667C7.42188 17.9076 7.48509 17.755 7.59761 17.6424C7.71013 17.5299 7.86275 17.4667 8.02188 17.4667H16.4219C16.581 17.4667 16.7336 17.5299 16.8461 17.6424C16.9587 17.755 17.0219 17.9076 17.0219 18.0667C17.0219 18.2258 16.9587 18.3784 16.8461 18.491C16.7336 18.6035 16.581 18.6667 16.4219 18.6667H8.02188Z" fill="#3AA79A"/>
<path id="Vector_2" fill-rule="evenodd" clip-rule="evenodd" d="M13.6423 1.8667H5.62031C5.14292 1.8667 4.68509 2.05634 4.34752 2.39391C4.00995 2.73147 3.82031 3.18931 3.82031 3.6667V21.6667C3.82031 22.1441 4.00995 22.6019 4.34752 22.9395C4.68509 23.2771 5.14292 23.4667 5.62031 23.4667H18.8203C19.2977 23.4667 19.7555 23.2771 20.0931 22.9395C20.4307 22.6019 20.6203 22.1441 20.6203 21.6667V9.3091C20.6202 8.85847 20.4511 8.42427 20.1463 8.0923L14.9695 2.4499C14.8008 2.26599 14.5957 2.11918 14.3672 2.01878C14.1387 1.91838 13.8919 1.86659 13.6423 1.8667ZM5.02031 3.6667C5.02031 3.50757 5.08353 3.35496 5.19605 3.24244C5.30857 3.12991 5.46118 3.0667 5.62031 3.0667H13.6423C13.7256 3.06661 13.8079 3.08384 13.8842 3.11731C13.9604 3.15078 14.0288 3.19975 14.0851 3.2611L19.2619 8.9035C19.3636 9.01409 19.4202 9.15883 19.4203 9.3091V21.6667C19.4203 21.8258 19.3571 21.9784 19.2446 22.091C19.1321 22.2035 18.9794 22.2667 18.8203 22.2667H5.62031C5.46118 22.2667 5.30857 22.2035 5.19605 22.091C5.08353 21.9784 5.02031 21.8258 5.02031 21.6667V3.6667Z" fill="#03594F"/>
<path id="Vector_3" d="M13.4188 9.0667H20.0188C20.1779 9.0667 20.3305 9.12991 20.443 9.24244C20.5555 9.35496 20.6188 9.50757 20.6188 9.6667C20.6188 9.82583 20.5555 9.97844 20.443 10.091C20.3305 10.2035 20.1779 10.2667 20.0188 10.2667H12.8188C12.6596 10.2667 12.507 10.2035 12.3945 10.091C12.282 9.97844 12.2188 9.82583 12.2188 9.6667V2.4667C12.2188 2.30757 12.282 2.15496 12.3945 2.04244C12.507 1.92991 12.6596 1.8667 12.8188 1.8667C12.9779 1.8667 13.1305 1.92991 13.243 2.04244C13.3555 2.15496 13.4188 2.30757 13.4188 2.4667V9.0667Z" fill="#03594F"/>
</g>
</g>
</svg>
