<?xml version="1.0" encoding="UTF-8"?>
<svg xmlns="http://www.w3.org/2000/svg" xmlns:xlink="http://www.w3.org/1999/xlink" width="px" height="28px" viewBox="0 0 28 28" version="1.1">
<g id="surface1">
<path style=" stroke:none;fill-rule:nonzero;fill:rgb(0%,0%,0%);fill-opacity:1;" d="M 24.53125 8.191406 C 24.363281 8.191406 24.203125 8.226562 24.0625 8.285156 L 24.0625 7.769531 C 24.0625 7.4375 23.929688 7.121094 23.695312 6.886719 C 23.460938 6.648438 23.144531 6.519531 22.808594 6.519531 L 22.597656 6.519531 C 22.449219 6.519531 22.308594 6.546875 22.175781 6.589844 L 22.175781 5.785156 C 22.175781 5.453125 22.042969 5.136719 21.808594 4.898438 C 21.574219 4.664062 21.257812 4.535156 20.921875 4.535156 L 20.710938 4.535156 C 20.375 4.535156 20.058594 4.664062 19.824219 4.898438 C 19.589844 5.136719 19.457031 5.453125 19.457031 5.785156 L 19.457031 6.371094 C 19.328125 6.320312 19.183594 6.292969 19.035156 6.292969 L 18.824219 6.292969 C 18.128906 6.292969 17.570312 6.859375 17.566406 7.546875 L 17.558594 14.367188 C 17.558594 14.53125 17.472656 14.679688 17.320312 14.75 C 17.171875 14.820312 17.003906 14.804688 16.871094 14.699219 L 16.410156 14.332031 C 15.835938 13.875 15.015625 13.917969 14.496094 14.4375 C 13.941406 14.996094 13.941406 15.910156 14.496094 16.464844 L 17.230469 19.207031 C 17.3125 19.289062 17.359375 19.390625 17.359375 19.507812 L 17.359375 22.226562 C 17.359375 22.558594 17.488281 22.875 17.722656 23.109375 C 17.960938 23.347656 18.277344 23.476562 18.609375 23.476562 L 23.941406 23.476562 C 24.632812 23.476562 25.195312 22.914062 25.199219 22.226562 L 25.199219 18.550781 C 25.199219 18.539062 25.199219 18.535156 25.199219 18.523438 L 25.292969 17.03125 C 25.292969 17.011719 25.296875 16.996094 25.296875 16.980469 L 25.761719 14.449219 C 25.773438 14.371094 25.785156 14.300781 25.785156 14.222656 L 25.785156 9.460938 C 25.789062 8.753906 25.226562 8.191406 24.53125 8.191406 Z M 23.941406 22.640625 L 18.609375 22.640625 C 18.496094 22.640625 18.390625 22.597656 18.308594 22.515625 C 18.226562 22.433594 18.183594 22.328125 18.183594 22.214844 L 18.183594 21.929688 L 18.960938 21.929688 C 19.191406 21.929688 19.375 21.742188 19.375 21.515625 C 19.375 21.285156 19.191406 21.097656 18.960938 21.097656 L 18.183594 21.097656 L 18.183594 19.496094 C 18.183594 19.164062 18.050781 18.84375 17.816406 18.609375 L 15.082031 15.871094 C 14.847656 15.636719 14.847656 15.253906 15.082031 15.015625 C 15.300781 14.796875 15.644531 14.78125 15.886719 14.972656 L 16.347656 15.339844 C 16.722656 15.644531 17.238281 15.707031 17.675781 15.492188 C 18.113281 15.285156 18.386719 14.847656 18.386719 14.359375 L 18.390625 7.542969 C 18.390625 7.304688 18.582031 7.121094 18.8125 7.121094 L 19.027344 7.121094 C 19.140625 7.121094 19.246094 7.164062 19.328125 7.246094 C 19.402344 7.324219 19.445312 7.433594 19.453125 7.542969 L 19.453125 13.292969 C 19.453125 13.496094 19.59375 13.660156 19.785156 13.703125 C 19.8125 13.710938 19.839844 13.714844 19.867188 13.714844 C 20.054688 13.714844 20.207031 13.59375 20.261719 13.429688 C 20.273438 13.402344 20.277344 13.371094 20.285156 13.34375 C 20.285156 13.332031 20.285156 13.328125 20.285156 13.316406 C 20.285156 13.3125 20.285156 13.304688 20.285156 13.300781 L 20.289062 7.550781 C 20.289062 7.550781 20.289062 7.550781 20.289062 7.546875 L 20.289062 5.785156 C 20.289062 5.671875 20.332031 5.566406 20.414062 5.484375 C 20.496094 5.402344 20.601562 5.359375 20.714844 5.359375 L 20.929688 5.359375 C 21.042969 5.359375 21.148438 5.402344 21.230469 5.484375 C 21.3125 5.566406 21.355469 5.671875 21.355469 5.785156 L 21.355469 13.300781 C 21.355469 13.53125 21.542969 13.714844 21.769531 13.714844 C 22 13.714844 22.1875 13.53125 22.1875 13.300781 L 22.1875 7.777344 C 22.1875 7.542969 22.378906 7.355469 22.609375 7.355469 L 22.820312 7.355469 C 22.9375 7.355469 23.039062 7.398438 23.121094 7.480469 C 23.203125 7.5625 23.246094 7.667969 23.246094 7.78125 L 23.246094 13.304688 C 23.246094 13.535156 23.433594 13.722656 23.664062 13.722656 C 23.675781 13.722656 23.679688 13.722656 23.683594 13.722656 C 23.695312 13.722656 23.703125 13.722656 23.710938 13.722656 C 23.941406 13.722656 24.128906 13.535156 24.128906 13.304688 L 24.128906 9.460938 C 24.128906 9.226562 24.320312 9.039062 24.550781 9.039062 C 24.785156 9.039062 24.96875 9.230469 24.96875 9.460938 L 24.96875 14.222656 C 24.96875 14.25 24.96875 14.273438 24.964844 14.300781 L 24.5 16.832031 C 24.488281 16.882812 24.484375 16.929688 24.484375 16.980469 L 24.390625 18.472656 C 24.390625 18.5 24.390625 18.527344 24.390625 18.554688 L 24.390625 21.113281 L 20.539062 21.113281 C 20.3125 21.113281 20.125 21.300781 20.125 21.53125 C 20.125 21.761719 20.3125 21.945312 20.539062 21.945312 L 24.390625 21.945312 L 24.390625 22.230469 C 24.367188 22.449219 24.175781 22.640625 23.941406 22.640625 Z M 23.941406 22.640625 "/>
<path style=" stroke:none;fill-rule:nonzero;fill:rgb(0%,0%,0%);fill-opacity:1;" d="M 2.210938 9.449219 L 2.210938 14.214844 C 2.210938 14.289062 2.214844 14.367188 2.230469 14.4375 L 2.695312 16.96875 C 2.703125 16.984375 2.703125 17.003906 2.703125 17.019531 L 2.792969 18.511719 C 2.792969 18.523438 2.792969 18.527344 2.792969 18.539062 L 2.792969 22.214844 C 2.792969 22.910156 3.359375 23.464844 4.050781 23.464844 L 9.382812 23.464844 C 9.71875 23.464844 10.035156 23.335938 10.269531 23.101562 C 10.503906 22.863281 10.636719 22.546875 10.636719 22.214844 L 10.636719 19.496094 C 10.636719 19.382812 10.679688 19.277344 10.761719 19.195312 L 13.496094 16.457031 C 14.054688 15.898438 14.054688 14.984375 13.496094 14.425781 C 12.976562 13.90625 12.15625 13.863281 11.582031 14.324219 L 11.125 14.6875 C 10.992188 14.792969 10.828125 14.816406 10.675781 14.738281 C 10.527344 14.667969 10.433594 14.523438 10.433594 14.355469 L 10.433594 7.546875 C 10.433594 6.851562 9.871094 6.292969 9.175781 6.292969 L 8.964844 6.292969 C 8.816406 6.292969 8.671875 6.320312 8.542969 6.371094 L 8.542969 5.785156 C 8.542969 5.453125 8.410156 5.136719 8.175781 4.898438 C 7.941406 4.664062 7.625 4.535156 7.289062 4.535156 L 7.078125 4.535156 C 6.742188 4.535156 6.425781 4.664062 6.191406 4.898438 C 5.957031 5.136719 5.824219 5.453125 5.824219 5.785156 L 5.824219 6.589844 C 5.691406 6.539062 5.550781 6.519531 5.402344 6.519531 L 5.191406 6.519531 C 4.855469 6.519531 4.539062 6.648438 4.304688 6.886719 C 4.070312 7.121094 3.9375 7.4375 3.9375 7.769531 L 3.9375 8.285156 C 3.789062 8.226562 3.632812 8.191406 3.46875 8.191406 C 2.773438 8.191406 2.210938 8.753906 2.210938 9.449219 Z M 3.632812 22.21875 L 3.632812 21.933594 L 7.480469 21.933594 C 7.710938 21.933594 7.898438 21.75 7.898438 21.519531 C 7.898438 21.289062 7.710938 21.105469 7.480469 21.105469 L 3.632812 21.105469 L 3.632812 18.542969 C 3.632812 18.515625 3.632812 18.488281 3.632812 18.460938 L 3.539062 16.96875 C 3.53125 16.921875 3.527344 16.871094 3.523438 16.820312 L 3.058594 14.289062 C 3.050781 14.261719 3.050781 14.242188 3.050781 14.214844 L 3.050781 9.449219 C 3.050781 9.214844 3.242188 9.027344 3.472656 9.027344 C 3.707031 9.027344 3.894531 9.21875 3.894531 9.449219 L 3.894531 13.292969 C 3.894531 13.523438 4.078125 13.710938 4.308594 13.710938 C 4.320312 13.710938 4.324219 13.710938 4.335938 13.710938 C 4.34375 13.710938 4.351562 13.710938 4.359375 13.710938 C 4.589844 13.710938 4.773438 13.523438 4.773438 13.292969 L 4.773438 7.769531 C 4.773438 7.65625 4.816406 7.550781 4.898438 7.46875 C 4.980469 7.386719 5.085938 7.34375 5.199219 7.34375 L 5.414062 7.34375 C 5.648438 7.34375 5.835938 7.535156 5.835938 7.765625 L 5.835938 13.289062 C 5.835938 13.519531 6.019531 13.703125 6.25 13.703125 C 6.480469 13.703125 6.667969 13.519531 6.667969 13.289062 L 6.667969 5.773438 C 6.667969 5.660156 6.710938 5.554688 6.792969 5.472656 C 6.875 5.390625 6.976562 5.347656 7.09375 5.347656 L 7.304688 5.347656 C 7.421875 5.347656 7.523438 5.390625 7.605469 5.472656 C 7.6875 5.554688 7.734375 5.660156 7.734375 5.773438 L 7.734375 7.535156 C 7.734375 7.535156 7.734375 7.535156 7.734375 7.542969 L 7.738281 13.289062 C 7.738281 13.292969 7.738281 13.300781 7.738281 13.304688 C 7.738281 13.316406 7.738281 13.320312 7.738281 13.332031 C 7.742188 13.367188 7.75 13.394531 7.761719 13.421875 C 7.816406 13.585938 7.972656 13.703125 8.152344 13.703125 C 8.179688 13.703125 8.207031 13.699219 8.234375 13.695312 C 8.425781 13.65625 8.570312 13.484375 8.570312 13.285156 L 8.570312 7.53125 C 8.570312 7.421875 8.613281 7.3125 8.695312 7.234375 C 8.777344 7.152344 8.882812 7.109375 8.996094 7.109375 L 9.210938 7.109375 C 9.445312 7.109375 9.628906 7.300781 9.628906 7.53125 L 9.636719 14.351562 C 9.636719 14.835938 9.910156 15.269531 10.347656 15.480469 C 10.785156 15.695312 11.296875 15.636719 11.675781 15.328125 L 12.136719 14.960938 C 12.375 14.769531 12.71875 14.789062 12.9375 15.007812 C 13.175781 15.242188 13.175781 15.625 12.9375 15.859375 L 10.203125 18.597656 C 9.96875 18.835938 9.839844 19.152344 9.839844 19.484375 L 9.839844 21.085938 L 9.0625 21.085938 C 8.832031 21.085938 8.644531 21.273438 8.644531 21.503906 C 8.644531 21.734375 8.832031 21.917969 9.0625 21.917969 L 9.839844 21.917969 L 9.839844 22.203125 C 9.839844 22.316406 9.792969 22.421875 9.710938 22.503906 C 9.628906 22.585938 9.527344 22.628906 9.410156 22.628906 L 4.078125 22.628906 C 3.824219 22.640625 3.632812 22.449219 3.632812 22.21875 Z M 3.632812 22.21875 "/>
</g>
</svg>
