<?xml version="1.0" encoding="UTF-8"?>
<svg xmlns="http://www.w3.org/2000/svg" xmlns:xlink="http://www.w3.org/1999/xlink" width="px" height="28px" viewBox="0 0 28 28" version="1.1">
<g id="surface1">
<path style=" stroke:none;fill-rule:nonzero;fill:rgb(0%,0%,0%);fill-opacity:1;" d="M 27.0625 20.078125 L 27.03125 20.078125 L 27.03125 17.628906 C 27.03125 11.515625 22.761719 6.21875 16.832031 4.90625 C 16.800781 4.589844 16.664062 4.296875 16.441406 4.0625 C 16.167969 3.78125 15.804688 3.628906 15.417969 3.628906 L 12.582031 3.628906 C 12.195312 3.628906 11.832031 3.78125 11.558594 4.0625 C 11.335938 4.296875 11.199219 4.589844 11.167969 4.90625 C 5.238281 6.21875 0.96875 11.515625 0.96875 17.628906 L 0.96875 20.078125 L 0.9375 20.078125 C 0.421875 20.078125 0 20.5 0 21.015625 L 0 21.632812 C 0 22.039062 0.257812 22.398438 0.640625 22.523438 C 4.285156 23.714844 9.03125 24.371094 14 24.371094 C 18.96875 24.371094 23.714844 23.714844 27.359375 22.523438 C 27.742188 22.398438 28 22.039062 28 21.632812 L 28 21.015625 C 28 20.5 27.578125 20.078125 27.0625 20.078125 Z M 12.210938 4.691406 C 12.308594 4.589844 12.441406 4.535156 12.582031 4.535156 L 15.417969 4.535156 C 15.558594 4.535156 15.6875 4.589844 15.789062 4.691406 C 15.886719 4.792969 15.9375 4.925781 15.929688 5.066406 L 15.515625 17.164062 C 15.503906 17.441406 15.277344 17.660156 15 17.660156 L 13 17.660156 C 12.722656 17.660156 12.496094 17.441406 12.484375 17.164062 L 12.070312 5.066406 C 12.0625 4.925781 12.113281 4.792969 12.210938 4.691406 Z M 27.09375 21.632812 C 27.09375 21.644531 27.085938 21.65625 27.074219 21.660156 C 23.519531 22.824219 18.878906 23.464844 14 23.464844 C 9.121094 23.464844 4.480469 22.824219 0.925781 21.660156 C 0.914062 21.65625 0.90625 21.644531 0.90625 21.632812 L 0.90625 21.015625 C 0.90625 21 0.921875 20.984375 0.9375 20.984375 L 18.355469 20.984375 C 18.605469 20.984375 18.808594 20.78125 18.808594 20.53125 C 18.808594 20.28125 18.605469 20.078125 18.355469 20.078125 L 1.875 20.078125 L 1.875 17.628906 C 1.875 13.070312 4.425781 9 8.28125 6.933594 L 9.265625 13.824219 C 9.296875 14.050781 9.492188 14.210938 9.714844 14.210938 C 9.734375 14.210938 9.757812 14.210938 9.777344 14.207031 C 10.027344 14.171875 10.199219 13.941406 10.164062 13.695312 L 9.136719 6.515625 C 9.792969 6.230469 10.476562 6 11.1875 5.832031 L 11.578125 17.195312 C 11.605469 17.964844 12.230469 18.566406 13 18.566406 L 15 18.566406 C 15.769531 18.566406 16.394531 17.964844 16.421875 17.195312 L 16.8125 5.832031 C 17.523438 6 18.207031 6.230469 18.863281 6.515625 L 17.835938 13.695312 C 17.800781 13.941406 17.972656 14.171875 18.222656 14.207031 C 18.242188 14.210938 18.265625 14.210938 18.285156 14.210938 C 18.507812 14.210938 18.703125 14.050781 18.734375 13.824219 L 19.71875 6.933594 C 23.574219 9 26.125 13.070312 26.125 17.628906 L 26.125 20.078125 L 23.191406 20.078125 C 22.941406 20.078125 22.738281 20.28125 22.738281 20.53125 C 22.738281 20.78125 22.941406 20.984375 23.191406 20.984375 L 27.0625 20.984375 C 27.078125 20.984375 27.09375 21 27.09375 21.015625 Z M 27.09375 21.632812 "/>
<path style=" stroke:none;fill-rule:nonzero;fill:rgb(0%,0%,0%);fill-opacity:1;" d="M 21.257812 20.078125 L 20.289062 20.078125 C 20.039062 20.078125 19.835938 20.28125 19.835938 20.53125 C 19.835938 20.78125 20.039062 20.984375 20.289062 20.984375 L 21.257812 20.984375 C 21.507812 20.984375 21.710938 20.78125 21.710938 20.53125 C 21.710938 20.28125 21.507812 20.078125 21.257812 20.078125 Z M 21.257812 20.078125 "/>
<path style=" stroke:none;fill-rule:nonzero;fill:rgb(0%,0%,0%);fill-opacity:1;" d="M 10.578125 16.597656 L 10.441406 15.628906 C 10.40625 15.382812 10.175781 15.207031 9.925781 15.242188 C 9.679688 15.28125 9.507812 15.507812 9.542969 15.757812 L 9.679688 16.726562 C 9.714844 16.953125 9.90625 17.113281 10.128906 17.113281 C 10.152344 17.113281 10.171875 17.113281 10.195312 17.109375 C 10.441406 17.074219 10.613281 16.84375 10.578125 16.597656 Z M 10.578125 16.597656 "/>
<path style=" stroke:none;fill-rule:nonzero;fill:rgb(0%,0%,0%);fill-opacity:1;" d="M 18.074219 15.242188 C 17.824219 15.207031 17.59375 15.382812 17.558594 15.628906 L 17.421875 16.597656 C 17.386719 16.84375 17.558594 17.074219 17.804688 17.109375 C 17.828125 17.113281 17.851562 17.113281 17.871094 17.113281 C 18.09375 17.113281 18.289062 16.953125 18.320312 16.726562 L 18.457031 15.757812 C 18.492188 15.507812 18.320312 15.28125 18.074219 15.242188 Z M 18.074219 15.242188 "/>
</g>
</svg>
