<?xml version="1.0" encoding="UTF-8"?>
<svg xmlns="http://www.w3.org/2000/svg" xmlns:xlink="http://www.w3.org/1999/xlink" width="px" height="32px" viewBox="0 0 32 32" version="1.1">
<g id="surface1">
<path fill="currentColor" style=" stroke:none;fill-rule:nonzero;fill-opacity:1;" d="M 11.957031 14.398438 L 7.914062 14.398438 C 7.636719 14.398438 7.410156 14.625 7.410156 14.902344 L 7.410156 16.925781 C 7.410156 17.203125 7.636719 17.429688 7.914062 17.429688 L 11.957031 17.429688 C 12.238281 17.429688 12.464844 17.203125 12.464844 16.925781 L 12.464844 14.902344 C 12.464844 14.625 12.238281 14.398438 11.957031 14.398438 Z M 11.453125 16.417969 L 8.421875 16.417969 L 8.421875 15.410156 L 11.453125 15.410156 Z M 11.453125 16.417969 "/>
<path fill="currentColor" style=" stroke:none;fill-rule:nonzero;fill-opacity:1;" d="M 24.085938 14.398438 L 20.042969 14.398438 C 19.761719 14.398438 19.535156 14.625 19.535156 14.902344 L 19.535156 16.925781 C 19.535156 17.203125 19.761719 17.429688 20.042969 17.429688 L 24.085938 17.429688 C 24.363281 17.429688 24.589844 17.203125 24.589844 16.925781 L 24.589844 14.902344 C 24.589844 14.625 24.363281 14.398438 24.085938 14.398438 Z M 23.578125 16.417969 L 20.546875 16.417969 L 20.546875 15.410156 L 23.578125 15.410156 Z M 23.578125 16.417969 "/>
<path fill="currentColor" style=" stroke:none;fill-rule:nonzero;fill-opacity:1;" d="M 24.210938 9.007812 L 23.242188 9.007812 L 23.242188 5.472656 C 23.242188 5.253906 23.105469 5.070312 22.914062 5 C 22.910156 4.996094 22.90625 4.996094 22.902344 4.996094 C 18.324219 3.390625 13.675781 3.390625 9.097656 4.996094 C 9.09375 4.996094 9.09375 4.996094 9.089844 4.996094 C 8.898438 5.066406 8.757812 5.253906 8.757812 5.472656 L 8.757812 9.007812 L 7.789062 9.007812 C 3.496094 9.007812 0 12.503906 0 16.796875 L 0 27.703125 C 0 27.980469 0.226562 28.207031 0.503906 28.207031 L 31.496094 28.207031 C 31.773438 28.207031 32 27.980469 32 27.703125 L 32 16.796875 C 32 12.503906 28.503906 9.007812 24.210938 9.007812 Z M 21.800781 5.695312 L 19.464844 8.03125 C 17.554688 9.941406 14.445312 9.941406 12.535156 8.03125 L 10.199219 5.695312 C 14.050781 4.507812 17.945312 4.507812 21.800781 5.695312 Z M 22.230469 6.691406 L 22.230469 9.304688 L 21.398438 10.136719 C 21.128906 10.40625 20.84375 10.652344 20.546875 10.871094 L 20.546875 8.375 Z M 19.535156 9.300781 L 19.535156 11.503906 C 17.328125 12.65625 14.671875 12.65625 12.464844 11.503906 L 12.464844 9.300781 C 13.507812 10.082031 14.753906 10.472656 16 10.472656 C 17.246094 10.472656 18.492188 10.082031 19.535156 9.300781 Z M 9.769531 6.691406 L 11.453125 8.375 L 11.453125 10.871094 C 11.15625 10.652344 10.871094 10.40625 10.601562 10.136719 L 9.769531 9.304688 Z M 5.390625 27.199219 L 1.011719 27.199219 L 1.011719 23.492188 L 5.390625 23.492188 Z M 5.390625 22.480469 L 1.011719 22.480469 L 1.011719 19.449219 L 5.390625 19.449219 Z M 13.472656 27.199219 L 6.398438 27.199219 L 6.398438 25.511719 L 13.472656 25.511719 Z M 13.472656 24.503906 L 6.398438 24.503906 L 6.398438 21.472656 L 13.472656 21.472656 Z M 13.472656 20.460938 L 6.398438 20.460938 L 6.398438 17.597656 C 6.398438 17.507812 6.375 17.417969 6.328125 17.335938 L 4.308594 13.96875 C 4.164062 13.730469 3.851562 13.652344 3.613281 13.796875 C 3.375 13.941406 3.296875 14.25 3.441406 14.488281 L 5.390625 17.738281 L 5.390625 18.441406 L 1.011719 18.441406 L 1.011719 16.796875 C 1.011719 13.058594 4.050781 10.019531 7.789062 10.019531 L 9.054688 10.019531 L 9.886719 10.851562 C 10.921875 11.886719 12.160156 12.605469 13.472656 13.003906 Z M 17.515625 27.199219 L 14.484375 27.199219 L 14.484375 13.386719 L 17.515625 13.386719 Z M 25.601562 27.199219 L 18.527344 27.199219 L 18.527344 25.511719 L 25.601562 25.511719 Z M 30.988281 27.199219 L 26.609375 27.199219 L 26.609375 23.492188 L 30.988281 23.492188 Z M 30.988281 22.480469 L 26.609375 22.480469 L 26.609375 19.449219 L 30.988281 19.449219 Z M 30.988281 18.441406 L 26.609375 18.441406 L 26.609375 17.738281 L 28.558594 14.488281 C 28.703125 14.25 28.625 13.941406 28.386719 13.796875 C 28.148438 13.652344 27.835938 13.730469 27.691406 13.96875 L 25.671875 17.335938 C 25.625 17.417969 25.601562 17.507812 25.601562 17.597656 L 25.601562 20.460938 L 23.546875 20.460938 C 23.265625 20.460938 23.039062 20.6875 23.039062 20.964844 C 23.039062 21.246094 23.265625 21.472656 23.546875 21.472656 L 25.601562 21.472656 L 25.601562 24.503906 L 18.527344 24.503906 L 18.527344 21.472656 L 21.542969 21.472656 C 21.824219 21.472656 22.050781 21.246094 22.050781 20.964844 C 22.050781 20.6875 21.824219 20.460938 21.542969 20.460938 L 18.527344 20.460938 L 18.527344 13.003906 C 19.839844 12.605469 21.078125 11.886719 22.113281 10.851562 L 22.945312 10.019531 L 24.210938 10.019531 C 27.953125 10.019531 30.988281 13.054688 30.988281 16.796875 Z M 30.988281 18.441406 "/>
</g>
</svg>
