<?xml version="1.0" encoding="UTF-8"?>
<svg xmlns="http://www.w3.org/2000/svg" xmlns:xlink="http://www.w3.org/1999/xlink" width="24px" height="24px" viewBox="0 0 24 24" version="1.1">
<g id="surface1">
<path fill="currentColor" style=" stroke:none;fill-rule:nonzero;fill-opacity:1;" d="M 7.890625 4.042969 C 9.003906 4.042969 9.910156 3.140625 9.910156 2.023438 C 9.910156 0.90625 9.003906 0 7.890625 0 C 6.773438 0 5.867188 0.90625 5.867188 2.023438 C 5.867188 3.140625 6.773438 4.042969 7.890625 4.042969 Z M 7.890625 4.042969 "/>
<path fill="currentColor" style=" stroke:none;fill-rule:nonzero;fill-opacity:1;" d="M 18.25 6.191406 L 18.25 6.152344 C 18.25 5.554688 17.765625 5.066406 17.164062 5.066406 L 8.058594 5.066406 C 5.863281 5.066406 3.914062 5.800781 3.429688 8.234375 L 1.941406 14.433594 C 1.839844 14.902344 2.132812 15.363281 2.597656 15.46875 C 3.066406 15.570312 3.527344 15.277344 3.632812 14.8125 L 5.195312 10.679688 L 5.597656 22.972656 C 5.597656 23.539062 6.058594 24 6.625 24 C 7.191406 24 7.648438 23.539062 7.648438 22.972656 L 8.058594 15.640625 L 8.464844 22.972656 C 8.464844 23.539062 8.925781 24 9.492188 24 C 10.058594 24 10.515625 23.539062 10.515625 22.972656 L 11.09375 8.125 L 17.3125 7.265625 C 17.851562 7.191406 18.25 6.734375 18.25 6.191406 Z M 18.25 6.191406 "/>
<path fill="currentColor" style=" stroke:none;fill-rule:nonzero;fill-opacity:1;" d="M 19.566406 11.105469 L 16.8125 13.425781 L 15.582031 11.960938 L 18.335938 9.644531 Z M 19.566406 11.105469 "/>
<path fill="currentColor" style=" stroke:none;fill-rule:nonzero;fill-opacity:1;" d="M 15.777344 21.039062 C 15.777344 21.472656 16.128906 21.824219 16.5625 21.824219 C 16.996094 21.824219 17.351562 21.472656 17.351562 21.039062 C 17.351562 20.601562 16.996094 20.25 16.5625 20.25 C 16.128906 20.25 15.777344 20.601562 15.777344 21.039062 Z M 15.777344 21.039062 "/>
<path fill="currentColor" style=" stroke:none;fill-rule:nonzero;fill-opacity:1;" d="M 17.6875 17.886719 L 19.375 17.886719 L 19.375 19.574219 L 17.6875 19.574219 Z M 17.6875 17.886719 "/>
<path fill="currentColor" style=" stroke:none;fill-rule:nonzero;fill-opacity:1;" d="M 20.722656 13.953125 L 19.800781 22.648438 L 15.121094 22.648438 L 14.203125 13.953125 L 12.84375 13.953125 L 13.90625 24 L 21.015625 24 L 22.078125 13.953125 Z M 20.722656 13.953125 "/>
</g>
</svg>
