<svg width="366" height="366" viewBox="0 0 366 366" fill="none" xmlns="http://www.w3.org/2000/svg">
<path d="M71.736 284.199C135.757 317.644 239.562 317.644 303.582 284.199C367.603 250.754 367.603 196.527 303.582 163.075C239.562 129.622 135.786 129.63 71.736 163.075C7.686 196.52 7.74456 250.754 71.736 284.199Z" fill="#F5F5F5"/>
<path d="M53.8898 229.35L33.0791 217.338V172.701L53.8898 184.72V229.35Z" fill="#E0E0E0"/>
<path d="M53.8898 184.72L83.6237 167.555V212.185L53.8898 229.35V184.72Z" fill="#EBEBEB"/>
<path d="M83.6237 167.555L53.8898 184.72L33.0791 172.701L62.8129 155.535L83.6237 167.555Z" fill="#F5F5F5"/>
<path d="M56.8691 186.433L80.6518 172.701L81.2008 173.015V189.551L57.4108 203.284L56.8618 202.969L56.8691 186.433Z" fill="#E0E0E0"/>
<path d="M57.4108 186.755L81.2008 173.015V189.551L57.4108 203.284V186.755Z" fill="#F5F5F5"/>
<path d="M66.7364 184.171L70.7844 181.836C71.3041 181.529 71.7287 181.668 71.7287 182.144C71.691 182.435 71.586 182.714 71.4222 182.958C71.2583 183.202 71.0399 183.404 70.7844 183.549L66.7364 185.884C66.2094 186.192 65.7848 186.052 65.7848 185.577C65.8228 185.284 65.9286 185.005 66.0939 184.761C66.2591 184.517 66.4792 184.315 66.7364 184.171Z" fill="#E0E0E0"/>
<path d="M56.3201 207.354L80.1028 193.621V210.157L80.6518 210.472L56.8618 224.204L56.3201 223.89V207.354Z" fill="#E0E0E0"/>
<path d="M56.8618 207.668L80.6518 193.936V210.472L56.8618 224.204V207.668Z" fill="#F5F5F5"/>
<path d="M66.1874 205.092L70.272 202.764C70.799 202.456 71.2236 202.596 71.2236 203.071C71.1857 203.364 71.0798 203.643 70.9146 203.887C70.7493 204.131 70.5293 204.333 70.272 204.477L66.224 206.812C65.697 207.119 65.2724 206.98 65.2724 206.504C65.3053 206.214 65.4051 205.936 65.5638 205.69C65.7226 205.445 65.9361 205.24 66.1874 205.092Z" fill="#E0E0E0"/>
<path d="M53.8898 182.143L33.0791 170.124V125.494L53.8898 137.506V182.143Z" fill="#E0E0E0"/>
<path d="M53.8898 137.506L83.6237 120.341V164.978L53.8898 182.144V137.506Z" fill="#EBEBEB"/>
<path d="M83.6237 120.341L53.8898 137.506L33.0791 125.494L62.8129 108.329L83.6237 120.341Z" fill="#F5F5F5"/>
<path d="M56.8618 139.226L80.6518 125.494L81.2008 125.809V142.345L57.4108 156.077L56.8618 155.755V139.226Z" fill="#E0E0E0"/>
<path d="M66.7364 136.957L70.7771 134.622C71.3041 134.322 71.7287 134.461 71.7287 134.937C71.6896 135.229 71.5834 135.508 71.4182 135.751C71.2531 135.995 71.0336 136.198 70.7771 136.342L66.7364 138.677C66.2094 138.977 65.7848 138.846 65.7848 138.37C65.8234 138.077 65.9294 137.797 66.0945 137.552C66.2596 137.306 66.4794 137.103 66.7364 136.957Z" fill="#E0E0E0"/>
<path d="M56.3201 160.147L80.1028 146.415V162.943L80.6518 163.258L56.8618 176.99L56.3201 176.675V160.147Z" fill="#E0E0E0"/>
<path d="M56.8618 160.462L80.6518 146.729V163.258L56.8618 176.99V160.462Z" fill="#F5F5F5"/>
<path d="M66.1874 157.878L70.272 155.543C70.7917 155.243 71.2236 155.382 71.2236 155.857C71.1824 156.149 71.0753 156.427 70.9104 156.67C70.7454 156.914 70.5271 157.116 70.272 157.263L66.1874 159.576C65.6604 159.876 65.2358 159.737 65.2358 159.269C65.2776 158.979 65.385 158.704 65.55 158.463C65.715 158.221 65.933 158.021 66.1874 157.878Z" fill="#E0E0E0"/>
<path d="M56.8618 139.226L80.6518 125.494V142.022L56.8618 155.755V139.226Z" fill="#E0E0E0"/>
<path d="M92.5468 133.663L79.5245 126.146V140.712L92.5468 148.223V133.663Z" fill="#E0E0E0"/>
<path d="M65.7848 158.112V137.506L70.8869 134.549L71.7287 135.793L86.5956 127.207V146.092L65.7848 158.112Z" fill="#EBEBEB"/>
<path d="M65.7848 158.112L67.2708 140.083L88.0816 128.071L86.5956 146.092L65.7848 158.112Z" fill="#F5F5F5"/>
<path d="M68.7568 147.395L57.4108 140.844V155.411L68.7568 161.955V147.395Z" fill="#EBEBEB"/>
<path d="M68.7568 146.092L92.5468 132.36V148.889L68.7568 162.621V146.092Z" fill="#F5F5F5"/>
<path d="M78.0824 143.509L82.1231 141.174C82.6501 140.873 83.0747 141.013 83.0747 141.488C83.0351 141.78 82.9286 142.059 82.7635 142.302C82.5985 142.546 82.3793 142.749 82.1231 142.894L78.0824 145.229C77.5554 145.529 77.1308 145.39 77.1308 144.921C77.1694 144.628 77.2754 144.348 77.4405 144.103C77.6056 143.858 77.8254 143.654 78.0824 143.509Z" fill="#E0E0E0"/>
<path d="M68.7568 146.093L67.9662 145.639V162.167L68.7568 162.621V146.093Z" fill="#E0E0E0"/>
<path d="M67.9662 145.639L91.7489 131.899L92.5468 132.36L68.7568 146.092L67.9662 145.639Z" fill="#EBEBEB"/>
<path d="M299.754 202.31L278.936 190.291V145.661L299.754 157.673V202.31Z" fill="#E0E0E0"/>
<path d="M299.754 157.673L329.488 140.507V185.145L299.754 202.31V157.673Z" fill="#EBEBEB"/>
<path d="M329.488 140.507L299.754 157.673L278.936 145.661L308.677 128.488L329.488 140.507Z" fill="#F5F5F5"/>
<path d="M302.726 159.393L326.516 145.661L327.065 145.975L327.058 162.504L303.275 176.236L302.726 175.922V159.393Z" fill="#E0E0E0"/>
<path d="M303.275 159.708L327.065 145.975L327.058 162.504L303.275 176.236V159.708Z" fill="#F5F5F5"/>
<path d="M312.601 157.124L316.641 154.789C317.168 154.489 317.593 154.628 317.593 155.096C317.554 155.389 317.448 155.669 317.283 155.914C317.118 156.16 316.898 156.363 316.641 156.509L312.601 158.844C312.074 159.144 311.649 159.005 311.649 158.536C311.688 158.243 311.794 157.963 311.959 157.718C312.124 157.473 312.343 157.27 312.601 157.124Z" fill="#E0E0E0"/>
<path d="M302.177 180.313L325.967 166.574V183.11L326.516 183.424L302.726 197.157L302.177 196.842V180.313Z" fill="#E0E0E0"/>
<path d="M302.726 180.628L326.516 166.896V183.425L302.726 197.157V180.628Z" fill="#F5F5F5"/>
<path d="M312.052 178.044L316.1 175.709C316.619 175.409 317.044 175.548 317.044 176.017C317.005 176.309 316.9 176.588 316.736 176.833C316.572 177.078 316.355 177.282 316.1 177.429L312.052 179.765C311.525 180.065 311.1 179.926 311.1 179.45C311.14 179.158 311.246 178.879 311.411 178.636C311.576 178.392 311.795 178.189 312.052 178.044Z" fill="#E0E0E0"/>
<path d="M101.748 248.961C101.748 248.961 101.829 237.351 94.5085 228.648C88.0303 220.94 84.5826 216.05 86.6249 213.795C88.6672 211.541 93.0592 210.999 98.981 217.236C104.903 223.472 105.364 240.748 104.544 244.656L101.748 248.961Z" fill="#1588C5"/>
<path opacity="0.2" d="M101.748 248.961C101.748 248.961 101.829 237.351 94.5085 228.648C88.0303 220.94 84.5826 216.05 86.6249 213.795C88.6672 211.541 93.0592 210.999 98.981 217.236C104.903 223.472 105.364 240.748 104.544 244.656L101.748 248.961Z" fill="black"/>
<path d="M102.978 236.48C102.894 236.48 102.813 236.452 102.748 236.4C102.683 236.348 102.637 236.276 102.619 236.194C100.057 224.212 93.4837 217.587 89.7871 214.703C89.7106 214.644 89.6607 214.556 89.6483 214.46C89.636 214.364 89.6622 214.267 89.7212 214.19C89.7819 214.113 89.8704 214.063 89.9676 214.051C90.0648 214.039 90.163 214.065 90.241 214.125C94.0108 217.053 100.723 223.831 103.336 236.041C103.347 236.087 103.348 236.136 103.34 236.183C103.332 236.23 103.314 236.275 103.288 236.315C103.263 236.356 103.229 236.39 103.189 236.417C103.15 236.444 103.105 236.463 103.058 236.473L102.978 236.48Z" fill="white"/>
<path d="M101.47 253.272L98.4906 254.992C98.1728 254.124 97.6369 253.352 96.9343 252.751C96.2318 252.149 95.3863 251.739 94.4792 251.559C91.2218 250.827 87.84 250.952 85.5562 248.126C83.2723 245.301 86.0539 242.226 85.5562 240.147C85.0584 238.068 84.7363 237.468 80.6518 235.389C76.5672 233.31 74.9568 229.863 78.0312 227.528C81.1056 225.193 86.0832 226.905 89.099 228.992C91.7782 230.822 94.3255 231.305 97.3194 231.678C100.313 232.051 105.188 233.713 104.442 240.667C103.953 244.971 102.955 249.203 101.47 253.272Z" fill="#1588C5"/>
<path d="M90.036 244.137C89.958 244.136 89.8822 244.111 89.8192 244.065C89.7562 244.019 89.7091 243.955 89.6846 243.881C89.6569 243.787 89.6667 243.687 89.7118 243.601C89.7569 243.515 89.8338 243.45 89.9262 243.419C90.1897 243.339 96.5142 241.333 99.2006 243.485C99.2673 243.548 99.3079 243.634 99.3145 243.725C99.321 243.817 99.293 243.907 99.2359 243.979C99.1789 244.051 99.0969 244.099 99.0064 244.113C98.9158 244.127 98.8232 244.107 98.7468 244.056C96.3751 242.153 90.2117 244.1 90.1458 244.122L90.036 244.137Z" fill="white"/>
<path d="M101.799 252.716C101.71 252.716 101.624 252.683 101.558 252.624C101.491 252.564 101.45 252.482 101.441 252.394C99.8082 236.978 81.2374 229.665 81.0544 229.592C81.009 229.575 80.9674 229.549 80.9321 229.516C80.8969 229.482 80.8685 229.443 80.8488 229.398C80.829 229.354 80.8182 229.306 80.8171 229.258C80.816 229.209 80.8245 229.161 80.8421 229.116C80.8781 229.027 80.9468 228.956 81.0339 228.916C81.1211 228.877 81.2201 228.872 81.3106 228.904C81.5082 228.984 100.489 236.451 102.165 252.328C102.176 252.424 102.147 252.52 102.087 252.595C102.027 252.671 101.939 252.719 101.843 252.73L101.799 252.716Z" fill="white"/>
<path d="M283.87 243.148C283.95 242.892 287.09 226.73 283.87 215.267C280.942 204.755 277.121 200.875 271.674 200.019C266.228 199.163 263.864 203.086 266.755 208.4C269.647 213.715 276.608 220.764 278.314 232.637C279.046 237.527 279.602 241.772 279.602 241.772L283.87 243.148Z" fill="#1588C5"/>
<path opacity="0.2" d="M283.87 243.148C283.95 242.892 287.09 226.73 283.87 215.267C280.942 204.755 277.121 200.875 271.674 200.019C266.228 199.163 263.864 203.086 266.755 208.4C269.647 213.715 276.608 220.764 278.314 232.637C279.046 237.527 279.602 241.772 279.602 241.772L283.87 243.148Z" fill="black"/>
<path d="M282.032 233.867C281.984 233.864 281.937 233.852 281.894 233.831C281.85 233.81 281.812 233.78 281.78 233.744C281.748 233.708 281.723 233.666 281.708 233.621C281.692 233.575 281.685 233.527 281.688 233.479C282.42 220.391 278.145 208.708 270.481 202.976C270.404 202.918 270.352 202.831 270.339 202.735C270.325 202.639 270.35 202.542 270.408 202.464C270.468 202.388 270.554 202.338 270.65 202.324C270.745 202.31 270.842 202.334 270.921 202.391C278.775 208.247 283.182 220.193 282.413 233.523C282.407 233.618 282.364 233.708 282.293 233.773C282.222 233.837 282.128 233.871 282.032 233.867Z" fill="white"/>
<path d="M292.295 251.566C291.878 248.558 293.605 244.049 297.712 242.98C301.818 241.911 303.648 239.554 302.17 236.978C300.691 234.401 301.035 232.037 304.761 230.968C308.487 229.899 311.751 228.04 309.607 224.102C308.048 221.254 307.704 219.41 311.525 213.803C314.694 209.147 312.103 206.417 308.135 206.929C304.168 207.441 301.716 212.17 299.234 212.961C296.753 213.751 296.182 209.535 292.91 211.424C289.638 213.312 289.835 218.151 289.733 221.525C289.63 224.9 289.411 225.661 286.454 225.251C283.496 224.841 280.598 225.324 280.663 232.476C280.715 238.61 283.987 246.208 283.987 246.208L292.295 251.566Z" fill="#1588C5"/>
<path d="M287.105 246.992H287.068C286.971 246.98 286.881 246.931 286.819 246.854C286.758 246.778 286.729 246.68 286.739 246.582C288.803 228.143 304.629 212.588 308.758 209.433C308.835 209.373 308.933 209.347 309.03 209.36C309.127 209.374 309.214 209.424 309.274 209.502C309.333 209.58 309.359 209.678 309.346 209.775C309.333 209.871 309.282 209.959 309.204 210.018C305.127 213.129 289.506 228.479 287.471 246.662C287.46 246.752 287.417 246.835 287.35 246.896C287.283 246.956 287.196 246.99 287.105 246.992Z" fill="white"/>
<path d="M294.323 227.279C294.248 227.278 294.176 227.256 294.115 227.214C294.054 227.172 294.006 227.113 293.979 227.044C293.947 226.952 293.953 226.851 293.993 226.763C294.034 226.674 294.108 226.605 294.198 226.569C300.098 224.373 306.789 225.412 307.074 225.456C307.169 225.472 307.253 225.525 307.31 225.603C307.366 225.681 307.389 225.778 307.374 225.873C307.356 225.968 307.303 226.052 307.226 226.109C307.149 226.166 307.052 226.192 306.957 226.181C306.891 226.181 300.171 225.127 294.454 227.257C294.412 227.271 294.367 227.278 294.323 227.279Z" fill="white"/>
<path d="M289.067 238.361C289.015 238.361 288.965 238.349 288.918 238.328C288.871 238.306 288.83 238.275 288.796 238.237C286.342 235.379 284.679 231.93 283.972 228.23C283.965 228.183 283.967 228.134 283.979 228.087C283.99 228.041 284.011 227.997 284.039 227.958C284.068 227.919 284.104 227.886 284.145 227.862C284.186 227.837 284.232 227.82 284.28 227.813C284.327 227.806 284.376 227.808 284.422 227.819C284.469 227.831 284.513 227.852 284.552 227.88C284.591 227.909 284.623 227.945 284.648 227.986C284.673 228.027 284.69 228.073 284.697 228.12C285.397 231.674 286.997 234.988 289.345 237.746C289.391 237.8 289.42 237.866 289.43 237.936C289.44 238.006 289.43 238.077 289.401 238.142C289.371 238.206 289.325 238.261 289.265 238.3C289.206 238.339 289.138 238.36 289.067 238.361Z" fill="white"/>
<path d="M101.47 139.98V253.279L217.433 186.331L217.426 83.3308L131.204 133.114L128.224 124.528L101.47 139.98Z" fill="#1588C5"/>
<path opacity="0.7" d="M101.47 139.98V253.279L217.433 186.331L217.426 83.3308L131.204 133.114L128.224 124.528L101.47 139.98Z" fill="black"/>
<path d="M101.47 253.279L107.414 150.28L223.377 83.3308L217.433 186.331L101.47 253.279Z" fill="#E0E0E0"/>
<path d="M101.47 253.279L110.386 152L226.349 85.0437L217.433 186.331L101.47 253.279Z" fill="#1588C5"/>
<path opacity="0.7" d="M101.47 253.279L110.386 152L226.349 85.0437L217.433 186.331L101.47 253.279Z" fill="black"/>
<path d="M119.309 150.28V263.586L235.272 196.63V93.6301L149.043 143.413L146.071 134.827L119.309 150.28Z" fill="#1588C5"/>
<path opacity="0.5" d="M119.309 150.28V263.586L235.272 196.63V93.6301L149.043 143.413L146.071 134.827L119.309 150.28Z" fill="black"/>
<path d="M119.309 263.586L125.253 160.579L241.216 93.6301L235.272 196.63L119.309 263.586Z" fill="#E0E0E0"/>
<path d="M119.309 263.586L128.224 162.299L244.188 95.343L235.272 196.63L119.309 263.586Z" fill="#1588C5"/>
<path opacity="0.5" d="M119.309 263.586L128.224 162.299L244.188 95.343L235.272 196.63L119.309 263.586Z" fill="black"/>
<path d="M217.404 299.637C196.586 287.617 177.276 274.551 168.462 259.223L195.254 243.756L217.404 299.637Z" fill="#E0E0E0"/>
<path d="M140.119 162.299V275.598L256.083 208.649V105.649L169.853 155.433L166.881 146.846L140.119 162.299Z" fill="#1588C5"/>
<path opacity="0.2" d="M140.119 162.299V275.598L256.083 208.649V105.649L169.853 155.433L166.881 146.846L140.119 162.299Z" fill="black"/>
<path d="M173.528 195.795C173.235 195.795 173.191 195.459 173.191 195.261V98.637C173.215 98.2622 173.325 97.8979 173.513 97.5728C173.701 97.2477 173.961 96.9705 174.275 96.7631L257.971 48.4511C258.086 48.3796 258.217 48.3392 258.352 48.334C258.645 48.334 258.689 48.6707 258.689 48.8683V145.492C258.666 145.868 258.556 146.234 258.368 146.56C258.18 146.887 257.919 147.165 257.605 147.374L173.909 195.686C173.793 195.754 173.662 195.791 173.528 195.795Z" fill="white"/>
<path d="M258.308 48.6706C258.314 48.7241 258.314 48.7781 258.308 48.8316V145.456C258.284 145.767 258.191 146.07 258.035 146.341C257.879 146.612 257.665 146.844 257.408 147.022L173.711 195.334L173.565 195.4C173.555 195.347 173.555 195.292 173.565 195.239V98.615C173.59 98.3046 173.683 98.0037 173.839 97.734C173.995 97.4644 174.209 97.2327 174.465 97.0558L258.162 48.7438C258.208 48.7115 258.26 48.6891 258.315 48.6779M258.359 47.9459C258.16 47.9519 257.966 48.0099 257.796 48.1143L174.099 96.4263C173.731 96.668 173.425 96.9925 173.205 97.3739C172.985 97.7552 172.857 98.1828 172.833 98.6223V195.246C172.833 195.817 173.118 196.147 173.565 196.147C173.764 196.141 173.958 196.083 174.128 195.978L257.825 147.666C258.195 147.426 258.502 147.102 258.722 146.72C258.942 146.339 259.069 145.91 259.091 145.47V48.8463C259.091 48.2753 258.806 47.9386 258.359 47.9459Z" fill="#1588C5"/>
<path opacity="0.7" d="M258.308 48.6706C258.314 48.7241 258.314 48.7781 258.308 48.8316V145.456C258.284 145.767 258.191 146.07 258.035 146.341C257.879 146.612 257.665 146.844 257.408 147.022L173.711 195.334L173.565 195.4C173.555 195.347 173.555 195.292 173.565 195.239V98.615C173.59 98.3046 173.683 98.0037 173.839 97.734C173.995 97.4644 174.209 97.2327 174.465 97.0558L258.162 48.7438C258.208 48.7115 258.26 48.6891 258.315 48.6779M258.359 47.9459C258.16 47.9519 257.966 48.0099 257.796 48.1143L174.099 96.4263C173.731 96.668 173.425 96.9925 173.205 97.3739C172.985 97.7552 172.857 98.1828 172.833 98.6223V195.246C172.833 195.817 173.118 196.147 173.565 196.147C173.764 196.141 173.958 196.083 174.128 195.978L257.825 147.666C258.195 147.426 258.502 147.102 258.722 146.72C258.942 146.339 259.069 145.91 259.091 145.47V48.8463C259.091 48.2753 258.806 47.9386 258.359 47.9459Z" fill="white"/>
<path d="M181.748 102.304L211.482 85.1389V119.47L181.748 136.635V102.304Z" fill="#1588C5"/>
<path opacity="0.8" d="M181.748 102.304L211.482 85.1389V119.47L181.748 136.635V102.304Z" fill="white"/>
<path d="M207.024 93.6958V104.017L206.087 104.537V101.382C206.087 99.6396 204.675 99.0467 202.918 100.057L190.32 107.34C188.571 108.35 187.15 110.583 187.15 112.325V115.48L186.221 116.036V105.737L207.024 93.6958Z" fill="white"/>
<path d="M201.3 119.975C199.777 120.853 198.54 119.931 198.54 117.903V101.382L194.712 103.461V120.114C194.712 122.134 193.475 124.506 191.952 125.362L189.185 126.958V128.056L204.052 119.47V118.379L201.3 119.975Z" fill="white"/>
<path d="M217.404 83.448C217.404 84.3996 218.26 84.6704 219.307 84.0702L248.236 67.344C248.749 67.0531 249.188 66.6472 249.518 66.1583C249.848 65.6693 250.061 65.1106 250.139 64.5258C250.139 63.5815 249.283 63.3034 248.236 63.9109L219.329 80.6005C218.807 80.8909 218.361 81.2999 218.027 81.7946C217.692 82.2892 217.479 82.8556 217.404 83.448Z" fill="#1761AA"/>
<path d="M217.404 93.6958C217.404 94.6474 218.26 94.9256 219.307 94.318L248.214 77.6284C248.727 77.3375 249.166 76.9317 249.496 76.4427C249.826 75.9538 250.039 75.395 250.117 74.8102C250.117 73.8659 249.261 73.5878 248.214 74.1953L219.307 90.8849C218.795 91.1751 218.356 91.5798 218.026 92.0674C217.696 92.555 217.483 93.1123 217.404 93.6958Z" fill="#1761AA"/>
<path d="M217.404 104.017C217.404 104.969 218.26 105.247 219.307 104.639L248.214 87.9496C248.726 87.6594 249.165 87.2547 249.495 86.7671C249.825 86.2795 250.038 85.7222 250.117 85.1387C250.117 84.1871 249.261 83.909 248.214 84.5165L219.307 101.206C218.795 101.496 218.356 101.901 218.026 102.389C217.696 102.876 217.483 103.434 217.404 104.017Z" fill="#1761AA"/>
<path d="M217.404 114.316C217.404 115.268 218.26 115.546 219.307 114.939L248.214 98.2489C248.726 97.9587 249.165 97.554 249.495 97.0664C249.825 96.5788 250.038 96.0215 250.117 95.4381C250.117 94.4865 249.261 94.2083 248.214 94.8158L219.307 111.505C218.795 111.796 218.356 112.2 218.026 112.688C217.696 113.176 217.483 113.733 217.404 114.316Z" fill="#1761AA"/>
<path d="M181.748 145.221C181.748 146.173 182.597 146.451 183.651 145.844L248.236 108.512C248.749 108.222 249.188 107.818 249.518 107.33C249.848 106.842 250.061 106.285 250.139 105.701C250.139 104.749 249.283 104.478 248.236 105.078L183.651 142.41C183.138 142.699 182.699 143.104 182.368 143.592C182.038 144.079 181.826 144.637 181.748 145.221Z" fill="#1761AA"/>
<path d="M181.748 155.521C181.748 156.472 182.597 156.75 183.651 156.143L248.236 118.855C248.749 118.564 249.188 118.158 249.518 117.669C249.848 117.18 250.061 116.621 250.139 116.037C250.139 115.092 249.283 114.814 248.236 115.422L183.651 152.71C183.138 152.999 182.699 153.403 182.368 153.891C182.038 154.379 181.826 154.937 181.748 155.521Z" fill="#1761AA"/>
<path d="M181.748 165.827C181.748 166.772 182.597 167.05 183.651 166.442L248.236 129.154C248.749 128.863 249.188 128.457 249.518 127.968C249.848 127.479 250.061 126.921 250.139 126.336C250.139 125.392 249.283 125.113 248.236 125.721L183.651 163.009C183.137 163.299 182.697 163.704 182.367 164.193C182.037 164.683 181.825 165.242 181.748 165.827Z" fill="#1761AA"/>
<path d="M140.119 275.598L160.93 184.618L276.894 117.662L256.083 208.649L140.119 275.598Z" fill="#1588C5"/>
<path d="M168.492 191.74V259.223L195.254 243.77V176.295L168.492 191.74Z" fill="#1588C5"/>
<path opacity="0.2" d="M168.492 191.74V259.223L195.254 243.77V176.295L168.492 191.74Z" fill="black"/>
<path d="M217.455 299.198C215.179 297.499 193.233 280.729 182.078 256.742C170.205 231.239 170.219 201.49 170.219 190.298V189.947L249.773 144.021C249.773 155.316 249.773 185.108 261.697 210.699C272.597 234.123 293.7 250.681 297.046 253.213L217.455 299.198Z" fill="white"/>
<path d="M249.407 144.68C249.407 156.45 249.634 185.672 261.368 210.882C271.901 233.501 291.929 249.766 296.387 253.199L217.477 298.758C214.395 296.438 193.277 279.946 182.414 256.617C170.556 231.187 170.556 201.498 170.556 190.32V190.181L249.378 144.672M250.11 143.406L169.824 189.764C169.824 200.297 169.604 230.902 181.719 256.925C193.643 282.464 217.404 299.637 217.404 299.637L297.712 253.272C297.712 253.272 273.922 236.099 262.034 210.56C249.912 184.537 250.139 153.932 250.139 143.399L250.11 143.406Z" fill="#1588C5"/>
<path opacity="0.7" d="M249.407 144.68C249.407 156.45 249.634 185.672 261.368 210.882C271.901 233.501 291.929 249.766 296.387 253.199L217.477 298.758C214.395 296.438 193.277 279.946 182.414 256.617C170.556 231.187 170.556 201.498 170.556 190.32V190.181L249.378 144.672M250.11 143.406L169.824 189.764C169.824 200.297 169.604 230.902 181.719 256.925C193.643 282.464 217.404 299.637 217.404 299.637L297.712 253.272C297.712 253.272 273.922 236.099 262.034 210.56C249.912 184.537 250.139 153.932 250.139 143.399L250.11 143.406Z" fill="white"/>
<path d="M241.055 158.954L215.669 173.594C215.161 173.873 214.728 174.272 214.407 174.755C214.086 175.238 213.886 175.791 213.825 176.368C213.861 177.298 214.747 177.561 215.794 176.954L241.187 162.314C241.689 162.037 242.117 161.644 242.437 161.167C242.757 160.691 242.958 160.146 243.024 159.576C242.98 158.61 242.109 158.346 241.055 158.954Z" fill="#1761AA"/>
<path d="M241.597 168.945L216.211 183.585C215.709 183.855 215.283 184.248 214.973 184.727C214.664 185.205 214.48 185.754 214.439 186.323C214.52 187.223 215.442 187.465 216.489 186.857L241.882 172.217C242.382 171.949 242.805 171.557 243.111 171.079C243.417 170.601 243.596 170.053 243.632 169.487C243.558 168.579 242.651 168.36 241.597 168.945Z" fill="#1761AA"/>
<path d="M242.614 178.659L217.221 193.299C216.174 193.907 215.413 195.115 215.537 195.986C215.662 196.857 216.621 197.084 217.675 196.476L243.068 181.836C244.115 181.229 244.861 180.028 244.73 179.157C244.598 178.286 243.661 178.052 242.614 178.659Z" fill="#1761AA"/>
<path d="M244.137 188.08L218.744 202.72C217.697 203.328 216.972 204.513 217.148 205.363C217.323 206.212 218.319 206.402 219.344 205.795L244.73 191.155C245.784 190.547 246.486 189.368 246.311 188.519C246.135 187.67 245.22 187.473 244.137 188.08Z" fill="#1761AA"/>
<path d="M246.201 197.186L220.808 211.826C219.761 212.434 219.08 213.59 219.344 214.403C219.607 215.215 220.61 215.398 221.657 214.791L247.05 200.151C248.104 199.543 248.763 198.394 248.514 197.574C248.265 196.754 247.248 196.578 246.201 197.186Z" fill="#1761AA"/>
<path d="M248.88 205.963L186.997 241.692C185.95 242.299 185.313 243.426 185.599 244.21C185.884 244.993 186.975 245.139 188.022 244.532L249.905 208.803C250.959 208.195 251.566 207.075 251.281 206.285C250.995 205.494 249.89 205.355 248.88 205.963Z" fill="#1761AA"/>
<path d="M252.137 214.344L190.261 250.073C189.207 250.681 188.629 251.779 188.98 252.525C189.332 253.272 190.444 253.389 191.513 252.781L253.396 217.052C254.451 216.445 255.014 215.347 254.663 214.6C254.311 213.854 253.191 213.744 252.137 214.344Z" fill="#1761AA"/>
<path d="M256.2 222.33L194.317 258.059C193.263 258.667 192.743 259.735 193.16 260.445C193.577 261.155 194.771 261.229 195.825 260.621L257.664 224.892C258.711 224.292 259.216 223.231 258.799 222.521C258.381 221.81 257.225 221.723 256.2 222.33Z" fill="#1761AA"/>
<path d="M260.936 229.885L199.06 265.606C198.006 266.214 197.538 267.26 198.013 267.927C198.489 268.593 199.741 268.659 200.795 268.044L262.671 232.315C263.725 231.707 264.179 230.675 263.703 230.002C263.227 229.328 261.99 229.277 260.936 229.885Z" fill="#1761AA"/>
<path d="M266.338 237.065L204.455 272.787C203.408 273.395 202.991 274.412 203.518 275.049C204.045 275.686 205.341 275.715 206.395 275.107L268.278 239.364C269.325 238.756 269.742 237.753 269.2 237.117C268.659 236.48 267.392 236.436 266.338 237.065Z" fill="#1761AA"/>
<path d="M272.304 243.902L210.443 279.624C209.389 280.232 208.979 281.227 209.594 281.82C210.208 282.413 211.511 282.428 212.558 281.82L274.441 246.091C275.496 245.484 275.862 244.503 275.276 243.895C274.69 243.288 273.373 243.302 272.304 243.902Z" fill="#1761AA"/>
<path d="M278.892 250.439L217.009 286.161C215.962 286.768 215.618 287.742 216.277 288.32C216.936 288.898 218.282 288.876 219.337 288.269L281.169 252.54C282.215 251.932 282.545 250.981 281.901 250.395C281.256 249.809 279.917 249.831 278.892 250.439Z" fill="#1761AA"/>
<path d="M206.468 178.93L177.276 195.766C177.598 206.343 178.806 221.598 183.227 236.963L212.426 220.127C207.998 204.762 206.79 189.5 206.468 178.93Z" fill="#1588C5"/>
<path opacity="0.8" d="M206.468 178.93L177.276 195.766C177.598 206.343 178.806 221.598 183.227 236.963L212.426 220.127C207.998 204.762 206.79 189.5 206.468 178.93Z" fill="white"/>
<path d="M189.178 193.438C189.217 192.756 189.111 192.072 188.866 191.434C188.622 190.795 188.244 190.216 187.758 189.734L177.276 195.781C177.364 198.577 177.51 201.703 177.766 205.07C179.13 205.227 180.509 204.972 181.726 204.338C185.847 202.449 189.178 197.552 189.178 193.438Z" fill="#1588C5"/>
<path opacity="0.6" d="M189.178 193.438C189.217 192.756 189.111 192.072 188.866 191.434C188.622 190.795 188.244 190.216 187.758 189.734L177.276 195.781C177.364 198.577 177.51 201.703 177.766 205.07C179.13 205.227 180.509 204.972 181.726 204.338C185.847 202.449 189.178 197.552 189.178 193.438Z" fill="white"/>
<path d="M209.945 210.025C207.998 207.573 204.038 199.997 202.347 196.696C202.28 196.565 202.176 196.458 202.048 196.387C201.92 196.316 201.773 196.286 201.628 196.299C201.482 196.312 201.343 196.369 201.23 196.462C201.117 196.555 201.034 196.68 200.993 196.82C199.163 203.073 198.101 209.526 197.83 216.035C195.392 214.1 193.297 211.769 191.63 209.14C191.559 209.038 191.461 208.958 191.346 208.911C191.231 208.863 191.105 208.849 190.983 208.871C190.861 208.892 190.747 208.948 190.656 209.032C190.564 209.116 190.498 209.225 190.466 209.345C187.275 221.635 188.878 233.728 188.878 233.728L212.426 220.127C211.446 216.731 210.633 213.349 209.945 210.025Z" fill="#1588C5"/>
<path opacity="0.6" d="M209.945 210.025C207.998 207.573 204.038 199.997 202.347 196.696C202.28 196.565 202.176 196.458 202.048 196.387C201.92 196.316 201.773 196.286 201.628 196.299C201.482 196.312 201.343 196.369 201.23 196.462C201.117 196.555 201.034 196.68 200.993 196.82C199.163 203.073 198.101 209.526 197.83 216.035C195.392 214.1 193.297 211.769 191.63 209.14C191.559 209.038 191.461 208.958 191.346 208.911C191.231 208.863 191.105 208.849 190.983 208.871C190.861 208.892 190.747 208.948 190.656 209.032C190.564 209.116 190.498 209.225 190.466 209.345C187.275 221.635 188.878 233.728 188.878 233.728L212.426 220.127C211.446 216.731 210.633 213.349 209.945 210.025Z" fill="white"/>
</svg>
